<svg width="310" height="505" viewBox="0 0 310 505" fill="none" xmlns="http://www.w3.org/2000/svg">
<g clip-path="url(#clip0_1783_15752)">
<g style="mix-blend-mode:multiply">
<path d="M229.043 418.97H230.671L230.896 417.36C231.626 411.988 232.337 407.308 232.954 403.171C235.799 384.228 236.978 376.403 231.177 367.287C225.207 357.909 216.935 352.013 208.944 346.304C200.504 340.276 191.764 334.062 185.776 323.654C180.031 313.677 180.33 302.652 186.543 294.884C193.973 285.599 207.877 282.997 223.747 287.902C233.216 290.84 239.392 293.985 243.884 296.269C257.152 303.007 258.106 301.51 274.238 276.521C275.904 273.937 277.738 271.092 279.777 267.947L280.676 266.562L279.403 265.495C246.167 237.642 205.463 229.05 170.505 242.49C144.923 252.317 127.705 272.159 124.43 295.557C120.706 322.157 135.528 349.505 166.145 372.585C186.057 387.597 185.177 397.817 184.616 404.594C184.335 407.907 184.073 411.033 186.337 413.504C190.136 417.641 200.523 418.988 229.024 418.988L229.043 418.97ZM208.701 281.724C198.183 281.724 189.294 285.431 183.605 292.544C176.419 301.547 175.988 314.183 182.52 325.526C188.901 336.626 197.977 343.103 206.754 349.355C214.82 355.102 222.437 360.53 228.014 369.29C233.067 377.227 232.019 384.134 229.249 402.609C228.688 406.334 228.07 410.509 227.415 415.226C202.656 415.17 191.877 413.972 189.107 410.958C188.003 409.76 188.096 408.057 188.358 404.893C188.995 397.312 189.987 385.838 168.428 369.59C138.934 347.352 124.636 321.258 128.155 296.063C131.242 274.05 147.58 255.312 171.871 245.972C205.089 233.187 243.809 241.18 275.735 267.292C274.051 269.894 272.516 272.271 271.094 274.48C263.403 286.404 259.173 292.974 255.992 295.146C253.521 296.83 251.538 295.951 245.587 292.918C240.964 290.56 234.639 287.34 224.851 284.308C219.199 282.567 213.772 281.706 208.701 281.706V281.724Z" fill="#2ECC71"/>
</g>
<g style="mix-blend-mode:multiply">
<path d="M211.242 496.184C225.858 496.184 241.578 486.937 241.578 466.646C241.578 446.355 225.858 437.183 211.242 437.183C196.626 437.183 180.719 447.309 180.719 466.646C180.719 475.743 184.051 483.399 190.32 488.809C195.859 493.563 203.289 496.184 211.224 496.184H211.242ZM211.242 440.926C224.062 440.926 237.835 448.975 237.835 466.646C237.835 484.316 224.043 492.44 211.242 492.44C198.442 492.44 184.462 484.372 184.462 466.646C184.462 448.919 198.348 440.926 211.242 440.926Z" fill="#2ECC71"/>
</g>
<g style="mix-blend-mode:multiply">
<path d="M229.049 427.056H237.733L238.912 418.445C239.604 413.335 240.278 408.861 240.877 404.893L240.952 404.35C243.927 384.546 245.424 374.587 237.995 362.925C237.433 362.064 236.872 361.222 236.292 360.398L233.241 362.57C233.784 363.337 234.327 364.123 234.832 364.928C241.494 375.411 240.072 384.901 237.246 403.788L237.171 404.331C236.572 408.318 235.899 412.811 235.206 417.921L234.476 423.293H229.049C198.358 423.293 188.065 421.758 183.162 416.405C181.272 414.346 180.317 411.931 180.149 408.824L176.406 409.03C176.631 412.998 177.922 416.255 180.411 418.932C186.306 425.352 196.318 427.018 229.049 427.018V427.056Z" fill="#2ECC71"/>
<path d="M186.097 311.393L189.822 310.981C189.747 310.345 189.709 309.727 189.709 309.109C189.709 306.395 190.364 303.887 191.656 301.659C194.931 295.988 202.173 293.011 211.062 293.61L211.324 289.867C200.919 289.155 192.442 292.824 188.418 299.769C186.79 302.576 185.966 305.721 185.966 309.109C185.966 309.858 186.004 310.626 186.097 311.393Z" fill="#2ECC71"/>
<path d="M253.49 307.837C263.651 307.837 268.386 300.499 281.018 280.919L281.13 280.751C282.759 278.224 284.574 275.416 286.558 272.346L291.367 264.952L284.611 259.28C268.555 245.822 251.094 236.593 232.717 231.839L231.781 235.47C249.616 240.075 266.59 249.06 282.216 262.163L286.445 265.701L283.451 270.324C281.449 273.394 279.652 276.202 278.005 278.729L279.465 279.908L277.893 278.898C265.729 297.747 261.63 304.112 253.508 304.112C250.626 304.112 248.006 303.138 244.937 301.659L243.309 305.029C246.827 306.714 249.915 307.855 253.49 307.855V307.837Z" fill="#2ECC71"/>
<path d="M137.051 356.337L139.914 353.941C126.552 337.974 119.478 320.603 119.478 303.719C119.478 299.282 119.965 294.846 120.919 290.485L117.27 289.68C116.259 294.284 115.754 299.02 115.754 303.719C115.754 321.483 123.127 339.677 137.051 356.337Z" fill="#2ECC71"/>
</g>
<g style="mix-blend-mode:multiply">
<path d="M211.071 504.252H211.24C230.328 504.252 249.66 491.336 249.66 466.627C249.66 462.079 248.986 457.774 247.676 453.805L244.121 454.984C245.318 458.578 245.917 462.491 245.917 466.627C245.917 488.865 228.476 500.508 211.24 500.508L211.071 504.252ZM176.656 484.279L179.987 482.576C177.592 477.877 176.394 472.505 176.394 466.627C176.394 458.934 178.434 452.214 182.476 446.655L179.444 444.465C174.934 450.698 172.651 458.148 172.651 466.646C172.651 473.123 173.998 479.057 176.656 484.279Z" fill="#2ECC71"/>
</g>
<g style="mix-blend-mode:multiply">
<path d="M71.3511 289.604H72.9792L73.2038 287.994C73.6342 284.812 74.0647 282.023 74.4202 279.571C76.142 268.134 76.8531 263.398 73.26 257.745C69.6294 252.055 64.6701 248.498 59.8418 245.073C54.658 241.385 49.7736 237.885 46.2927 231.857C43.0364 226.204 43.1861 219.99 46.6857 215.609C50.8964 210.349 58.85 208.889 67.9638 211.716C73.522 213.438 77.1525 215.291 79.8099 216.639C88.3062 220.963 89.2981 219.409 98.8236 204.64C99.8155 203.105 100.901 201.421 102.117 199.549L103.016 198.164L101.743 197.097C81.7937 180.381 57.3154 175.215 36.2993 183.301C20.8413 189.235 10.4362 201.252 8.45248 215.422C6.20676 231.502 15.0961 248.011 33.5296 261.901C45.0201 270.567 44.5523 276.164 44.1967 280.245C44.0283 282.285 43.8411 284.4 45.4131 286.123C47.8834 288.799 53.9281 289.623 71.3324 289.623L71.3511 289.604ZM59.2617 206.568C52.7866 206.568 47.3033 208.871 43.7663 213.288C39.2936 218.885 39.0129 226.71 43.0551 233.729C46.929 240.468 52.3936 244.361 57.671 248.124C62.4057 251.493 66.8597 254.675 70.0972 259.748C72.9418 264.222 72.343 268.246 70.7148 279.009C70.4154 281.05 70.0598 283.315 69.7043 285.861C59.8044 285.823 49.9233 285.486 48.1641 283.577C47.715 283.09 47.7711 282.21 47.9209 280.544C48.2952 276.164 48.9127 268.808 35.7753 258.906C18.4833 245.877 10.0993 230.622 12.1579 215.946C13.9545 203.143 23.48 192.248 37.6467 186.801C56.9411 179.389 79.4169 183.919 98.0751 198.912C97.2142 200.241 96.4282 201.458 95.6796 202.6C91.1695 209.601 88.6805 213.457 86.9214 214.655C85.8547 215.385 85.0687 215.085 81.5129 213.288C78.7432 211.884 74.9442 209.956 69.0867 208.122C65.662 207.055 62.3496 206.531 59.2617 206.531V206.568Z" fill="#FFEB3B"/>
</g>
<g style="mix-blend-mode:multiply">
<path d="M60.789 346.715C70.1274 346.715 79.5781 340.426 79.5781 328.408C79.5781 316.391 70.1274 310.157 60.789 310.157C51.4506 310.157 41.9063 316.428 41.9063 328.408C41.9063 340.388 51.4132 346.715 60.789 346.715ZM60.789 313.882C68.0314 313.882 75.8353 318.431 75.8353 328.389C75.8353 338.348 68.0314 342.953 60.789 342.953C53.5466 342.953 45.6492 338.385 45.6492 328.389C45.6492 318.394 53.5092 313.882 60.789 313.882Z" fill="#FFEB3B"/>
</g>
<g style="mix-blend-mode:multiply">
<path d="M71.3656 297.691H80.049L81.228 289.08C81.6584 285.992 82.0514 283.278 82.407 280.9C84.2223 268.827 85.3077 261.601 80.0864 253.403C75.6137 246.383 69.7374 242.19 64.5536 238.484L62.757 237.211L60.5675 240.243L62.364 241.535C67.2859 245.035 72.844 249.004 76.9237 255.405C81.3964 262.425 80.4982 268.378 78.7203 280.226C78.346 282.753 77.9343 285.468 77.5039 288.594L76.774 293.966H71.3469C53.9801 293.966 46.1014 293.292 42.2275 289.062C39.3642 285.936 39.6824 282.304 39.8882 279.889C40.2251 275.977 39.8134 272.234 31.4855 265.813L29.2024 268.771C36.5945 274.48 36.3699 277.063 36.1641 279.571C35.9395 282.267 35.5091 287.283 39.4765 291.607C44.2486 296.792 51.9776 297.728 71.3469 297.728L71.3656 297.691Z" fill="#FFEB3B"/>
<path d="M48.6991 226.448L52.311 225.456C52.1426 224.82 52.049 224.202 52.049 223.603C52.049 222.704 52.2549 221.881 52.6666 221.188C52.9847 220.645 53.4338 220.159 53.9766 219.765L51.8057 216.714C50.8138 217.426 50.0278 218.287 49.429 219.298C48.6991 220.57 48.3248 222.012 48.3248 223.584C48.3248 224.52 48.4559 225.475 48.7179 226.429L48.6991 226.448Z" fill="#FFEB3B"/>
<path d="M85.8867 226.878C94.121 226.878 97.7329 221.281 105.63 209.021L113.715 196.554L106.959 190.882C90.4343 177.03 71.1961 170.292 51.9017 171.658L52.1637 175.402C70.5036 174.11 88.7687 180.55 104.545 193.765L108.756 197.303L102.468 206.999C94.8883 218.736 92.0625 223.135 85.8493 223.135C82.986 223.135 80.5906 221.918 77.8209 220.514C75.1822 219.166 71.8885 217.482 66.6672 215.872C64.8145 215.291 63.0179 214.917 61.3336 214.749L60.9594 218.474C62.4004 218.623 63.9536 218.942 65.5631 219.447C70.4849 220.963 73.6102 222.573 76.1366 223.846C79.056 225.343 82.0878 226.878 85.8493 226.878H85.8867Z" fill="#FFEB3B"/>
<path d="M6.46719 243.968L9.74219 242.153C5.77477 235.021 3.75363 227.721 3.75363 220.439C3.75363 217.463 4.09048 214.468 4.76419 211.566L1.11491 210.724C0.385058 213.906 0.0107803 217.182 0.0107803 220.439C0.0107803 228.357 2.18162 236.275 6.4859 243.968H6.46719Z" fill="#FFEB3B"/>
</g>
<g style="mix-blend-mode:multiply">
<path d="M60.7826 354.802C74.1258 354.802 87.6562 345.742 87.6562 328.408C87.6562 311.075 74.1446 302.071 60.7826 302.071C47.4206 302.071 33.8153 311.299 33.8153 328.408C33.8153 333.556 35.0692 338.198 37.5395 342.26L40.7396 340.313C38.6436 336.869 37.5582 332.863 37.5582 328.427C37.5582 313.751 49.5353 305.833 60.7826 305.833C72.0298 305.833 83.9134 313.602 83.9134 328.427C83.9134 343.252 72.2731 351.076 60.7826 351.076V354.82V354.802Z" fill="#FFEB3B"/>
</g>
<g style="mix-blend-mode:multiply">
<path d="M173.932 191.088H175.56L175.785 189.479C176.533 183.994 177.244 179.202 177.881 174.99C180.781 155.673 181.979 147.68 176.084 138.395C170.002 128.83 161.562 122.821 153.384 117C144.756 110.841 135.83 104.496 129.729 93.8637C123.852 83.662 124.152 72.3934 130.515 64.4379C138.113 54.9476 152.317 52.2708 168.542 57.3061C178.217 60.3011 184.505 63.502 189.109 65.8418C202.621 72.7116 203.594 71.1767 220.044 45.6818C221.747 43.0425 223.618 40.1411 225.695 36.9402L226.594 35.555L225.321 34.4881C191.411 6.05443 149.865 -2.72463 114.196 10.9961C88.1083 21.0294 70.5356 41.2642 67.1857 65.1305C63.3867 92.2539 78.5079 120.182 109.761 143.73C130.103 159.079 129.205 169.525 128.625 176.432C128.344 179.801 128.063 183.002 130.365 185.51C134.239 189.741 144.831 191.088 173.913 191.088H173.932ZM153.159 51.0541C142.436 51.0541 133.378 54.8353 127.577 62.0981C120.241 71.2702 119.81 84.1487 126.472 95.7168C132.985 107.042 142.249 113.649 151.213 120.032C159.447 125.91 167.232 131.451 172.921 140.398C178.086 148.503 177.02 155.56 174.175 174.429C173.595 178.247 172.959 182.515 172.285 187.345C146.965 187.289 135.942 186.053 133.116 182.983C131.974 181.748 132.068 179.988 132.349 176.75C133.004 169.019 133.996 157.32 112.006 140.735C81.8764 118.029 67.2793 91.3741 70.8912 65.6359C74.0539 43.1361 90.7283 24.0056 115.543 14.4778C149.491 1.43091 189.034 9.59225 221.653 36.2851C219.931 38.9431 218.341 41.3953 216.9 43.6415C209.04 55.8274 204.717 62.5286 201.461 64.7561C198.934 66.4783 196.876 65.5798 190.793 62.4912C186.077 60.0952 179.621 56.8007 169.628 53.7121C163.864 51.9339 158.324 51.0541 153.159 51.0541Z" fill="#F28C28"/>
</g>
<g style="mix-blend-mode:multiply">
<path d="M155.761 269.912C170.657 269.912 186.695 260.478 186.695 239.794C186.695 219.11 170.657 209.769 155.761 209.769C140.864 209.769 124.639 220.083 124.639 239.794C124.639 259.505 140.284 269.912 155.761 269.912ZM155.761 213.494C168.861 213.494 182.952 221.731 182.952 239.775C182.952 257.82 168.861 266.15 155.761 266.15C142.661 266.15 128.382 257.895 128.382 239.775C128.382 221.656 142.567 213.494 155.761 213.494Z" fill="#F28C28"/>
</g>
<g style="mix-blend-mode:multiply">
<path d="M173.937 199.756H183.125L184.379 190.659C185.128 185.211 185.839 180.476 186.456 176.283C189.507 155.973 191.041 145.771 183.387 133.735C183.2 133.454 183.013 133.155 182.826 132.874L179.701 134.933L180.225 135.738C187.13 146.576 185.652 156.31 182.751 175.721C182.115 179.914 181.404 184.687 180.655 190.134L179.85 195.993H173.937C142.459 195.993 131.867 194.384 126.758 188.824C125.205 187.121 124.231 185.193 123.801 182.89L120.133 183.583C120.695 186.597 121.967 189.142 124.007 191.351C130.052 197.921 140.775 199.737 173.937 199.737V199.756Z" fill="#F28C28"/>
<path d="M130.55 81.4727L134.274 81.0422C134.199 80.3496 134.143 79.6757 134.143 79.0019C134.143 76.2877 134.798 73.7981 136.09 71.5706C139.514 65.6555 147.243 62.6792 156.825 63.6526L157.199 59.9275C146.083 58.7857 137.025 62.4546 132.852 69.6987C131.224 72.5065 130.4 75.6325 130.4 79.0019C130.4 79.8068 130.457 80.6491 130.55 81.4727Z" fill="#F28C28"/>
<path d="M198.877 78.047C209.451 78.047 214.316 70.5221 227.285 50.3808C228.988 47.7414 230.86 44.8401 232.937 41.6579L238.027 33.8335L230.878 27.8435C215.009 14.5345 197.754 5.25008 179.639 0.252197L178.647 3.8649C196.257 8.73175 213.025 17.7541 228.483 30.7262L233.087 34.5822L229.812 39.6175C227.735 42.8184 225.863 45.7198 224.16 48.3592C211.64 67.7704 207.411 74.3032 198.896 74.3032C196.762 74.3032 194.629 73.7978 191.99 72.6747L190.531 76.1189C193.656 77.448 196.238 78.0282 198.896 78.0282L198.877 78.047Z" fill="#F28C28"/>
<path d="M80.2695 128.063L83.1328 125.649C69.0784 109.083 61.6488 91.0566 61.6488 73.4798C61.6488 68.9124 62.1541 64.3076 63.1273 59.8152L59.478 59.0103C58.43 63.7648 57.906 68.6316 57.906 73.4798C57.906 91.9364 65.635 110.824 80.2695 128.063Z" fill="#F28C28"/>
</g>
<g style="mix-blend-mode:multiply">
<path d="M155.573 278.561H155.76C175.429 278.561 195.359 265.233 195.359 239.776C195.359 235.096 194.667 230.641 193.301 226.56L189.745 227.74C190.98 231.446 191.598 235.489 191.598 239.776C191.598 262.781 173.557 274.817 155.741 274.817L155.554 278.561H155.573ZM120.109 257.97L123.44 256.286C120.97 251.419 119.716 245.878 119.716 239.794C119.716 231.858 121.831 224.894 126.004 219.129L122.973 216.939C118.331 223.359 115.974 231.053 115.974 239.794C115.974 246.458 117.358 252.579 120.091 257.97H120.109Z" fill="#F28C28"/>
</g>
<g style="mix-blend-mode:multiply">
<path d="M270.233 167.373H271.861L272.086 165.763C272.479 162.824 272.872 160.241 273.208 157.976C274.762 147.662 275.473 142.945 272.104 137.666C268.736 132.369 264.132 129.093 259.659 125.911C254.887 122.504 250.358 119.284 247.177 113.725C244.201 108.54 244.332 102.849 247.533 98.8622C251.388 94.0328 258.686 92.7038 267.07 95.3057C272.217 96.8968 275.566 98.6002 277.999 99.8543C285.972 103.898 286.889 102.456 295.778 88.698C296.695 87.2754 297.705 85.7217 298.828 83.9809L299.727 82.5957L298.454 81.5287C279.964 66.0297 257.264 61.2377 237.764 68.7439C223.41 74.2659 213.753 85.4035 211.901 98.5627C209.805 113.5 218.058 128.812 235.162 141.691C245.736 149.665 245.287 154.794 244.969 158.537C244.8 160.465 244.632 162.45 246.129 164.078C248.431 166.586 254.064 167.354 270.214 167.354L270.233 167.373ZM259.042 90.2704C252.997 90.2704 247.888 92.423 244.594 96.5411C240.421 101.764 240.159 109.064 243.921 115.615C247.514 121.886 252.585 125.48 257.488 128.981C261.849 132.088 265.966 135.027 268.942 139.706C271.543 143.806 270.981 147.512 269.503 157.433C269.222 159.286 268.923 161.345 268.586 163.648C259.51 163.61 250.471 163.292 248.899 161.588C248.524 161.195 248.581 160.353 248.712 158.893C249.067 154.812 249.647 147.961 237.427 138.752C221.464 126.734 213.735 112.658 215.625 99.143C217.272 87.3503 226.067 77.317 239.111 72.2817C256.871 65.4494 277.569 69.605 294.767 83.4006C294 84.5799 293.289 85.6843 292.634 86.7138C288.461 93.1718 286.177 96.7283 284.568 97.8327C283.688 98.4317 283.09 98.2819 279.702 96.5598C277.138 95.2495 273.62 93.4713 268.174 91.7866C264.993 90.7945 261.905 90.3078 259.042 90.3078V90.2704Z" fill="#36A8D9"/>
</g>
<g style="mix-blend-mode:multiply">
<path d="M270.232 175.159H278.654L279.795 166.811C280.188 163.947 280.563 161.438 280.9 159.211C282.584 147.961 283.613 141.222 278.691 133.491C274.518 126.921 269.035 123.009 264.188 119.565C262.41 118.292 260.726 117.094 259.21 115.84L256.814 118.722C258.442 120.07 260.183 121.305 262.017 122.616C266.564 125.854 271.73 129.542 275.529 135.494C279.702 142.046 278.86 147.568 277.213 158.556C276.857 160.877 276.483 163.404 276.09 166.286L275.398 171.397H270.251C254.138 171.397 246.821 170.76 243.19 166.811C240.496 163.872 240.795 160.315 240.982 158.2C241.3 154.437 240.907 151.068 232.767 144.928C231.756 144.161 230.764 143.393 229.81 142.626L227.433 145.527C228.425 146.332 229.454 147.137 230.502 147.923C237.632 153.296 237.445 155.523 237.239 157.882C237.033 160.259 236.622 165.201 240.421 169.356C244.931 174.279 252.154 175.159 270.232 175.159Z" fill="#36A8D9"/>
<path d="M249.484 108.97L253.077 107.903C252.89 107.304 252.815 106.724 252.815 106.162C252.815 105.414 252.983 104.74 253.32 104.141L250.27 101.951C250.195 102.063 250.139 102.175 250.064 102.288C249.409 103.429 249.072 104.74 249.072 106.162C249.072 107.08 249.222 108.016 249.503 108.97H249.484Z" fill="#36A8D9"/>
<path d="M283.669 109.644C291.529 109.644 294.916 104.403 302.308 92.9283L302.533 92.5914C303.394 91.2624 304.311 89.821 305.34 88.2487L310 81.0794L303.45 75.5948C289.358 63.7834 273.208 57.55 256.739 57.55C253.708 57.55 250.657 57.7747 247.7 58.1865L248.243 61.8928C251.031 61.4997 253.895 61.2938 256.739 61.2938C272.328 61.2938 287.655 67.2276 301.055 78.4775L305.059 81.8469L302.196 86.2458C301.167 87.8368 300.231 89.2782 299.37 90.6072L299.164 90.9441C291.66 102.587 289.246 105.938 283.669 105.938C280.974 105.938 278.747 104.815 276.183 103.486C273.732 102.25 270.7 100.697 265.891 99.1991C262.279 98.076 258.891 97.7952 256.14 98.338L256.87 102.007C258.985 101.576 261.773 101.838 264.786 102.774C269.296 104.178 272.178 105.638 274.499 106.818C277.25 108.221 280.095 109.663 283.688 109.663L283.669 109.644Z" fill="#36A8D9"/>
<path d="M208.705 123.14L212.055 121.455C209.042 115.465 207.526 109.344 207.526 103.242C207.526 100.472 207.844 97.6824 208.48 94.9495L204.831 94.1072C204.139 97.1209 203.783 100.191 203.783 103.242C203.783 109.924 205.449 116.607 208.724 123.121L208.705 123.14Z" fill="#36A8D9"/>
</g>
<g style="mix-blend-mode:multiply">
<path d="M260.444 229.668C273.02 229.668 285.746 221.132 285.746 204.809C285.746 188.487 273.02 179.989 260.444 179.989C247.868 179.989 235.049 188.693 235.049 204.809C235.049 212.84 238.418 219.803 244.519 224.408L246.764 221.413C243.115 218.661 238.773 213.57 238.773 204.809C238.773 191.126 249.927 183.732 260.426 183.732C270.924 183.732 281.985 190.976 281.985 204.809C281.985 218.643 271.149 225.924 260.426 225.924V229.668H260.444Z" fill="#36A8D9"/>
</g>
<g style="mix-blend-mode:multiply">
<path d="M260.452 221.9C269.154 221.9 277.969 216.041 277.969 204.828C277.969 193.616 269.154 187.794 260.452 187.794C251.75 187.794 242.842 193.653 242.842 204.828C242.842 216.003 251.713 221.9 260.452 221.9ZM260.452 191.538C267.077 191.538 274.226 195.694 274.226 204.828C274.226 213.963 267.077 218.156 260.452 218.156C253.827 218.156 246.585 213.982 246.585 204.828C246.585 200.71 248.063 197.285 250.852 194.889C253.378 192.736 256.784 191.538 260.452 191.538Z" fill="#36A8D9"/>
</g>
</g>
<defs>
<clipPath id="clip0_1783_15752">
<rect width="310.002" height="504" fill="white" transform="matrix(-1 0 0 1 310 0.251221)"/>
</clipPath>
</defs>
</svg>
