<svg width="22" height="21" viewBox="0 0 22 21" fill="none" xmlns="http://www.w3.org/2000/svg">
<path fill-rule="evenodd" clip-rule="evenodd" d="M5.29513 2.96556C2.62832 4.90311 1.29491 5.87189 0.771202 7.30291C0.729191 7.41771 0.691403 7.534 0.657916 7.65157C0.24047 9.11711 0.749787 10.6846 1.76842 13.8197C2.78705 16.9547 3.29637 18.5222 4.49552 19.4625C4.59171 19.5379 4.69064 19.6098 4.7921 19.678C6.05692 20.5279 7.7051 20.5279 11.0015 20.5279C14.2978 20.5279 15.946 20.5279 17.2108 19.678C17.3123 19.6098 17.4112 19.5379 17.5074 19.4625C18.7066 18.5222 19.2159 16.9547 20.2345 13.8197C21.2532 10.6846 21.7625 9.11711 21.345 7.65157C21.3115 7.534 21.2738 7.41771 21.2317 7.30291C20.708 5.87189 19.3746 4.90312 16.7078 2.96557C14.041 1.02801 12.7076 0.0592252 11.1848 0.00336104C11.0626 -0.00112035 10.9403 -0.00112035 10.8182 0.00336104C9.29536 0.0592251 7.96194 1.02801 5.29513 2.96556ZM9.00146 15.0697C8.58725 15.0697 8.25146 15.4054 8.25146 15.8197C8.25146 16.2339 8.58725 16.5697 9.00146 16.5697H13.0015C13.4157 16.5697 13.7515 16.2339 13.7515 15.8197C13.7515 15.4054 13.4157 15.0697 13.0015 15.0697H9.00146Z" fill="#F28C28"/>
</svg>
