<svg width="24" height="25" viewBox="0 0 24 25" fill="none" xmlns="http://www.w3.org/2000/svg">
<path d="M5.1316 22.9113C5.54303 23.2229 6.06588 23.1123 6.6886 22.6602L12.002 18.7627L17.3257 22.6602C17.9485 23.1123 18.4606 23.2229 18.8827 22.9113C19.2942 22.5997 19.385 22.0876 19.1339 21.3543L17.0343 15.1066L22.3983 11.2494C23.021 10.8076 23.2722 10.3452 23.1115 9.8433C22.9507 9.36116 22.4785 9.11987 21.7053 9.13016L15.1259 9.17002L13.127 2.8923C12.8862 2.14916 12.5249 1.77759 12.002 1.77759C11.4899 1.77759 11.1282 2.14916 10.8869 2.8923L8.88803 9.17002L2.30903 9.13016C1.53545 9.11987 1.0636 9.36116 0.902883 9.8433C0.731883 10.3456 0.992883 10.8076 1.61603 11.2494L6.9796 15.1066L4.88046 21.3543C4.62931 22.0876 4.71974 22.5997 5.1316 22.9113Z" fill="#FCEA2B"/>
</svg>
