<svg width="24" height="23" viewBox="0 0 24 23" fill="none" xmlns="http://www.w3.org/2000/svg">
<path d="M2.76842 14.8197L3.48171 14.5879L2.76842 14.8197ZM1.65792 8.65157L2.37923 8.85703L1.65792 8.65157ZM6.29513 3.96556L5.85429 3.3588L6.29513 3.96556ZM1.7712 8.30291L2.47552 8.56067L1.7712 8.30291ZM5.7921 20.678L5.3738 21.3005L5.7921 20.678ZM5.49552 20.4625L5.03273 21.0527L5.49552 20.4625ZM21.2345 14.8197L20.5212 14.5879L21.2345 14.8197ZM18.5074 20.4625L18.9702 21.0527L18.5074 20.4625ZM18.2108 20.678L18.6291 21.3005L18.2108 20.678ZM17.7078 3.96556L18.1486 3.3588L17.7078 3.96556ZM22.2317 8.30291L21.5274 8.56067L22.2317 8.30291ZM22.345 8.65157L21.6237 8.85703L22.345 8.65157ZM12.1848 1.00336L12.1573 1.75286L12.1848 1.00336ZM11.8182 1.00336L11.8457 1.75286L11.8182 1.00336ZM10.0015 16.0697C9.58726 16.0697 9.25147 16.4054 9.25147 16.8197C9.25147 17.2339 9.58726 17.5697 10.0015 17.5697V16.0697ZM14.0015 17.5697C14.4157 17.5697 14.7515 17.2339 14.7515 16.8197C14.7515 16.4054 14.4157 16.0697 14.0015 16.0697V17.5697ZM3.48171 14.5879C2.96736 13.0049 2.60097 11.874 2.40872 10.9558C2.22007 10.055 2.216 9.43007 2.37923 8.85703L0.936607 8.44611C0.682387 9.33861 0.724249 10.2303 0.94056 11.2633C1.15326 12.2791 1.55085 13.4994 2.05513 15.0514L3.48171 14.5879ZM5.85429 3.3588C4.53407 4.31799 3.49511 5.07158 2.72597 5.76835C1.94378 6.47693 1.38582 7.17368 1.06689 8.04515L2.47552 8.56067C2.68029 8.00112 3.05088 7.49798 3.73303 6.88002C4.42822 6.25026 5.38938 5.55068 6.73597 4.57232L5.85429 3.3588ZM2.37923 8.85703C2.40769 8.7571 2.43981 8.65824 2.47552 8.56067L1.06689 8.04515C1.01857 8.17717 0.975117 8.31091 0.936607 8.44611L2.37923 8.85703ZM12.0015 20.7779C10.337 20.7779 9.1482 20.7768 8.21561 20.676C7.30052 20.577 6.70496 20.3878 6.2104 20.0555L5.3738 21.3005C6.14407 21.8181 7.00501 22.0538 8.05431 22.1673C9.0861 22.2789 10.3696 22.2779 12.0015 22.2779V20.7779ZM2.05513 15.0514C2.55941 16.6034 2.95506 17.8244 3.38004 18.7712C3.81223 19.7341 4.30246 20.4801 5.03273 21.0527L5.9583 19.8723C5.48942 19.5046 5.12542 18.9967 4.74851 18.157C4.36439 17.3012 3.99607 16.1709 3.48171 14.5879L2.05513 15.0514ZM6.2104 20.0555C6.12416 19.9975 6.04007 19.9364 5.9583 19.8723L5.03273 21.0527C5.14336 21.1394 5.25712 21.2221 5.3738 21.3005L6.2104 20.0555ZM20.5212 14.5879C20.0069 16.1709 19.6386 17.3012 19.2544 18.157C18.8775 18.9967 18.5135 19.5046 18.0446 19.8723L18.9702 21.0527C19.7005 20.4801 20.1907 19.7341 20.6229 18.7712C21.0479 17.8244 21.4435 16.6034 21.9478 15.0514L20.5212 14.5879ZM12.0015 22.2779C13.6334 22.2779 14.9168 22.2789 15.9486 22.1673C16.9979 22.0538 17.8589 21.8181 18.6291 21.3005L17.7925 20.0555C17.298 20.3878 16.7024 20.577 15.7873 20.676C14.8547 20.7768 13.666 20.7779 12.0015 20.7779V22.2779ZM18.0446 19.8723C17.9629 19.9364 17.8788 19.9975 17.7925 20.0555L18.6291 21.3005C18.7458 21.2221 18.8596 21.1394 18.9702 21.0527L18.0446 19.8723ZM17.267 4.57232C18.6136 5.55068 19.5747 6.25026 20.2699 6.88002C20.9521 7.49798 21.3226 8.00112 21.5274 8.56067L22.9361 8.04515C22.6171 7.17368 22.0592 6.47693 21.277 5.76835C20.5078 5.07158 19.4689 4.31799 18.1486 3.3588L17.267 4.57232ZM21.9478 15.0514C22.4521 13.4994 22.8497 12.2791 23.0624 11.2633C23.2787 10.2303 23.3206 9.33861 23.0663 8.44611L21.6237 8.85703C21.7869 9.43007 21.7829 10.055 21.5942 10.9558C21.402 11.874 21.0356 13.0049 20.5212 14.5879L21.9478 15.0514ZM21.5274 8.56067C21.5631 8.65824 21.5952 8.75709 21.6237 8.85703L23.0663 8.44611C23.0278 8.31091 22.9844 8.17717 22.9361 8.04515L21.5274 8.56067ZM18.1486 3.3588C16.8284 2.3996 15.7907 1.64436 14.8903 1.12818C13.9747 0.603234 13.1396 0.287886 12.2123 0.253865L12.1573 1.75286C12.7527 1.7747 13.3458 1.97167 14.1443 2.42948C14.958 2.89603 15.9204 3.59396 17.267 4.57232L18.1486 3.3588ZM6.73597 4.57232C8.08256 3.59396 9.04491 2.89603 9.85869 2.42948C10.6572 1.97167 11.2502 1.7747 11.8457 1.75286L11.7907 0.253865C10.8633 0.287886 10.0282 0.603234 9.11262 1.12818C8.21228 1.64436 7.17451 2.3996 5.85429 3.3588L6.73597 4.57232ZM12.2123 0.253865C12.0718 0.248712 11.9312 0.248712 11.7907 0.253865L11.8457 1.75286C11.9495 1.74905 12.0534 1.74905 12.1573 1.75286L12.2123 0.253865ZM10.0015 17.5697H14.0015V16.0697H10.0015V17.5697Z" fill="#949494"/>
</svg>
