<svg width="48" height="48" viewBox="0 0 48 48" fill="none" xmlns="http://www.w3.org/2000/svg">
<rect width="48" height="48" rx="12" fill="#36A8D9" fill-opacity="0.2"/>
<path d="M16 18.3333C16 15.5719 18.2386 13.3333 21 13.3333C23.7614 13.3333 26 15.5719 26 18.3333C26 21.0947 23.7614 23.3333 21 23.3333C18.2386 23.3333 16 21.0947 16 18.3333Z" fill="#36A8D9"/>
<path d="M25.4658 13.8425C26.6193 14.9896 27.3333 16.5781 27.3333 18.3333C27.3333 20.0886 26.6193 21.6771 25.4658 22.8241C26.1299 23.1502 26.8769 23.3333 27.6667 23.3333C30.4281 23.3333 32.6667 21.0947 32.6667 18.3333C32.6667 15.5719 30.4281 13.3333 27.6667 13.3333C26.8769 13.3333 26.1299 13.5164 25.4658 13.8425Z" fill="#36A8D9"/>
<path d="M12 30.3333C12 27.5719 14.2386 25.3333 17 25.3333H25C27.7614 25.3333 30 27.5719 30 30.3333C30 33.0947 27.7614 35.3333 25 35.3333H17C14.2386 35.3333 12 33.0947 12 30.3333Z" fill="#36A8D9"/>
<path d="M31.3333 30.3333C31.3333 31.6998 30.9006 32.9652 30.1646 34H31.6667C34.4281 34 36.6667 31.7614 36.6667 29C36.6667 26.2386 34.4281 24 31.6667 24H25C28.4978 24 31.3333 26.8355 31.3333 30.3333Z" fill="#36A8D9"/>
</svg>
