<svg width="48" height="48" viewBox="0 0 48 48" fill="none" xmlns="http://www.w3.org/2000/svg">
<rect width="48" height="48" rx="12" fill="#2ECC71" fill-opacity="0.2"/>
<path d="M15.9593 10.4475C16.3906 10.1025 16.4605 9.47323 16.1155 9.04197C15.7705 8.61071 15.1412 8.54078 14.7099 8.88579L11.3766 11.5525C10.9453 11.8975 10.8754 12.5268 11.2204 12.958C11.5654 13.3893 12.1947 13.4592 12.626 13.1142L15.9593 10.4475Z" fill="#2ECC71"/>
<path d="M33.2927 8.88579C32.8614 8.54078 32.2321 8.61071 31.8871 9.04197C31.5421 9.47323 31.612 10.1025 32.0433 10.4475L35.3766 13.1142C35.8079 13.4592 36.4372 13.3893 36.7822 12.958C37.1272 12.5268 37.0573 11.8975 36.626 11.5525L33.2927 8.88579Z" fill="#2ECC71"/>
<path fill-rule="evenodd" clip-rule="evenodd" d="M24.0013 9.66667C16.0852 9.66667 9.66797 16.0839 9.66797 24C9.66797 31.9161 16.0852 38.3333 24.0013 38.3333C31.9174 38.3333 38.3346 31.9161 38.3346 24C38.3346 16.0839 31.9174 9.66667 24.0013 9.66667ZM25.0013 18.6667C25.0013 18.1144 24.5536 17.6667 24.0013 17.6667C23.449 17.6667 23.0013 18.1144 23.0013 18.6667L23.0013 23.3333C23.0013 24.9902 24.3444 26.3333 26.0013 26.3333H28.0013C28.5536 26.3333 29.0013 25.8856 29.0013 25.3333C29.0013 24.781 28.5536 24.3333 28.0013 24.3333H26.0013C25.449 24.3333 25.0013 23.8856 25.0013 23.3333L25.0013 18.6667Z" fill="#2ECC71"/>
</svg>
