<svg width="48" height="48" viewBox="0 0 48 48" fill="none" xmlns="http://www.w3.org/2000/svg">
<rect width="48" height="48" rx="12" fill="#FCEA2B" fill-opacity="0.2"/>
<path d="M14.8395 37.8817C15.3881 38.2971 16.0852 38.1497 16.9155 37.5469L24.0001 32.3503L31.0984 37.5469C31.9287 38.1497 32.6115 38.2971 33.1744 37.8817C33.723 37.4663 33.8441 36.7834 33.5092 35.8057L30.7098 27.4754L37.8618 22.3326C38.6921 21.7434 39.027 21.1269 38.8127 20.4577C38.5984 19.8149 37.9687 19.4931 36.9378 19.5069L28.1652 19.56L25.5001 11.1897C25.179 10.1989 24.6972 9.70343 24.0001 9.70343C23.3172 9.70343 22.835 10.1989 22.5132 11.1897L19.8481 19.56L11.0761 19.5069C10.0447 19.4931 9.41553 19.8149 9.20124 20.4577C8.97324 21.1274 9.32124 21.7434 10.1521 22.3326L17.3035 27.4754L14.5047 35.8057C14.1698 36.7834 14.2904 37.4663 14.8395 37.8817Z" fill="#FCEA2B"/>
</svg>
