<svg width="96" height="96" viewBox="0 0 96 96" fill="none" xmlns="http://www.w3.org/2000/svg">
<g clip-path="url(#clip0_1256_31778)">
<rect width="96" height="96" rx="48" fill="#FEF3E9"/>
<g clip-path="url(#clip1_1256_31778)">
<path d="M20.2084 31.5135C20.2084 31.5135 21.9267 29.9525 25.1971 32.7788L26.7215 30.4339C26.7215 30.4339 23.0492 27.5526 20.2084 31.5135Z" fill="#37A8D8"/>
<path d="M26.2019 24.6576C26.2019 24.6576 24.1717 27.1607 27.0957 30.0144L25.121 31.9949C25.121 31.9949 20.5964 26.4936 26.2019 24.6645V24.6576Z" fill="#37A8D8"/>
<path d="M17.8734 92.1235C21.4348 86.6566 27.0264 85.1782 27.0264 85.1782L40.4268 80.2477H53.2174L66.6178 85.1782C66.6178 85.1782 72.2094 86.6566 75.7708 92.1235H17.8734Z" fill="#D7EEF6"/>
<path d="M64.2966 118H85C85 114.493 84.7713 109.487 84.7713 109.487C83.5518 88.472 68.1282 85.1713 68.1282 85.1713C56.0998 82.2831 62.6545 100.747 62.6545 100.747C62.3427 105.196 63.0078 111.185 64.3035 117.993L64.2966 118Z" fill="#37A8D8"/>
<path d="M55.6078 67.7736H38.0432V84.7655H55.6078V67.7736Z" fill="#D7EEF6"/>
<path d="M55.601 75.6747V67.7736H38.0364V71.6863C43.0459 75.826 49.0809 76.3486 55.601 75.6747Z" fill="#A4D6E5"/>
<path d="M74.3019 118C74.6414 108.84 74.5374 106.324 74.4543 103.195C74.2741 96.2357 72.7706 90.3494 68.1491 85.1782C68.1421 85.1782 68.1283 85.1782 68.1283 85.1782L55.6079 81.1279C55.6079 81.1279 58.2408 85.7008 46.732 85.7008C46.732 85.7008 39.1519 85.4051 38.0432 81.1279L25.3288 85.1782C25.3288 85.1782 14.4575 87.8326 12.5936 99.1858L18.982 110.848L18.7534 118.007H74.2949L74.3019 118Z" fill="#37A8D8"/>
<path d="M69.2508 46.5319C69.7497 42.626 68.9113 38.8783 68.9529 35.0274C68.9806 32.4418 68.4748 28.5428 65.2321 28.2127C60.7422 27.7589 59.3564 35.4469 59.0931 38.782C58.7259 43.3755 59.8761 48.3404 60.7699 52.8377C61.0886 54.4606 61.0609 57.7063 62.8971 58.4902C64.4699 59.1572 66.0843 57.5825 66.8881 56.4066C68.8282 53.5735 68.8351 49.8051 69.2439 46.5319H69.2508Z" fill="#37A8D8"/>
<path d="M65.925 65.4081C64.1512 72.2984 61.0263 74.2032 61.0263 74.2032L56.8343 75.0146C54.4231 74.712 50.2589 73.7356 50.2589 73.7356C40.6832 70.5036 37.9047 69.6303 36.422 66.0201C36.3596 65.8688 28.8695 40.0748 28.8695 40.0748C27.6431 26.7962 41.6463 24.0387 43.7596 23.688C45.8521 23.2066 59.1832 19.5345 63.1188 32.2768C63.1188 32.2768 68.939 47.0408 65.925 65.4081Z" fill="#D7EEF6"/>
<path d="M70.3247 19.4314C71.08 23.5504 70.3732 29.258 67.1583 31.8917C63.6661 34.7455 60.6659 33.9684 56.4601 34.8967C52.088 35.8595 47.612 36.2445 43.2191 37.0835C40.1427 37.6749 36.5882 38.0118 35.1747 41.2507C33.304 45.5348 32.9367 51.1185 34.1978 55.2926C35.244 58.7653 35.5697 62.1485 36.7199 66.6733C32.7496 63.4138 29.6663 58.6553 29.6663 58.6553C28.3452 56.3493 26.941 53.193 25.4536 49.1862C24.144 45.6586 23.0146 42.5641 22.8414 38.9264C22.6266 34.2366 24.9131 32.1943 27.4352 27.8895C29.8049 23.8461 33.1307 21.0405 37.4682 19.7614C37.4682 19.7614 59.4465 20.9855 59.0377 16.0068C59.0377 16.0068 64.3174 17.3478 63.3128 20.8273C63.3128 20.8273 68.835 19.8233 67.6641 16.0068C67.6641 16.0068 69.8951 17.0521 70.3386 19.4382L70.3247 19.4314Z" fill="#37A8D8"/>
<path d="M35.0778 54.3987C35.0778 54.3987 32.7081 49.2825 28.9873 52.3151C28.9873 52.3151 27.2897 53.6285 29.3823 57.053C29.3823 57.053 32.4102 61.9766 36.0409 59.2466L35.0778 54.3987Z" fill="#D7EEF6"/>
<path d="M34.7036 42.4609C34.7036 42.4609 34.7175 51.6274 36.415 56.4891L34.6135 56.8467C34.6135 56.8467 33.6643 50.5615 30.4077 50.4859L34.7036 42.4678V42.4609Z" fill="#37A8D8"/>
<path d="M30.3522 118H11C11 118 11.0693 113.441 11.0762 113.118C11.2217 108.634 11.5058 104.116 12.3234 99.7014C13.4875 93.3887 16.5777 87.7843 23.3818 86.1821C26.4929 85.4463 29.2644 87.3167 30.9481 89.8611C30.9481 89.8611 34.0245 93.6294 30.3522 118.007V118Z" fill="#37A8D8"/>
</g>
</g>
<defs>
<clipPath id="clip0_1256_31778">
<rect width="96" height="96" rx="48" fill="white"/>
</clipPath>
<clipPath id="clip1_1256_31778">
<rect width="74" height="102" fill="white" transform="translate(11 16)"/>
</clipPath>
</defs>
</svg>
