<svg width="38" height="48" viewBox="0 0 38 48" fill="none" xmlns="http://www.w3.org/2000/svg">
<g clip-path="url(#clip0_1345_34035)">
<path d="M4.72852 8.21303C4.72852 8.21303 5.61091 7.38663 7.29031 8.88289L8.07309 7.64147C8.07309 7.64147 6.18732 6.11609 4.72852 8.21303Z" fill="#37A8D8"/>
<path d="M7.8062 4.58337C7.8062 4.58337 6.76369 5.90853 8.26519 7.41935L7.25115 8.46782C7.25115 8.46782 4.92774 5.5554 7.8062 4.58701V4.58337Z" fill="#37A8D8"/>
<path d="M3.52979 40.3006C5.35862 37.4064 8.22997 36.6237 8.22997 36.6237L15.1112 34.0134H21.6794L28.5607 36.6237C28.5607 36.6237 31.432 37.4064 33.2609 40.3006H3.52979Z" fill="#D7EEF6"/>
<path d="M27.3685 54H38C38 52.1433 37.8826 49.493 37.8826 49.493C37.2564 38.3676 29.3361 36.6201 29.3361 36.6201C23.1593 35.0911 26.5253 44.8659 26.5253 44.8659C26.3652 47.2213 26.7067 50.3922 27.3721 53.9964L27.3685 54Z" fill="#37A8D8"/>
<path d="M22.9069 27.4095H13.8872V36.4053H22.9069V27.4095Z" fill="#D7EEF6"/>
<path d="M22.903 31.5925V27.4095H13.8833V29.481C16.4558 31.6726 19.5548 31.9493 22.903 31.5925Z" fill="#A4D6E5"/>
<path d="M32.5064 54C32.6807 49.1508 32.6273 47.8184 32.5846 46.162C32.4921 42.4777 31.72 39.3614 29.3468 36.6238C29.3433 36.6238 29.3361 36.6238 29.3361 36.6238L22.9067 34.4795C22.9067 34.4795 24.2588 36.9004 18.3489 36.9004C18.3489 36.9004 14.4564 36.7439 13.8871 34.4795L7.35806 36.6238C7.35806 36.6238 1.77548 38.029 0.818359 44.0395L4.09888 50.2139L3.98147 54.0037H32.5028L32.5064 54Z" fill="#37A8D8"/>
<path d="M29.9128 16.164C30.169 14.0962 29.7384 12.1121 29.7598 10.0734C29.774 8.70456 29.5143 6.64038 27.8491 6.46564C25.5435 6.22536 24.8319 10.2955 24.6967 12.0611C24.5081 14.493 25.0987 17.1215 25.5577 19.5024C25.7214 20.3615 25.7072 22.0799 26.6501 22.4949C27.4577 22.848 28.2868 22.0143 28.6995 21.3918C29.6958 19.8919 29.6993 17.8969 29.9092 16.164H29.9128Z" fill="#37A8D8"/>
<path d="M28.2047 26.1572C27.2938 29.805 25.6891 30.8134 25.6891 30.8134L23.5365 31.243C22.2983 31.0828 20.1599 30.5659 20.1599 30.5659C15.2427 28.8548 13.8159 28.3925 13.0545 26.4812C13.0225 26.4011 9.1762 12.7455 9.1762 12.7455C8.54643 5.71562 15.7373 4.25576 16.8225 4.0701C17.897 3.81526 24.7427 1.87122 26.7637 8.61712C26.7637 8.61712 29.7524 16.4333 28.2047 26.1572Z" fill="#D7EEF6"/>
<path d="M30.4643 1.81665C30.8521 3.99732 30.4892 7.01897 28.8382 8.41329C27.045 9.92411 25.5043 9.51273 23.3446 10.0042C21.0995 10.5139 18.801 10.7177 16.5452 11.1619C14.9654 11.475 13.1401 11.6534 12.4143 13.3681C11.4536 15.6361 11.265 18.5922 11.9126 20.802C12.4498 22.6405 12.6171 24.4316 13.2077 26.8271C11.1689 25.1015 9.58561 22.5822 9.58561 22.5822C8.90721 21.3614 8.18611 19.6904 7.42232 17.5692C6.74984 15.7016 6.16988 14.0634 6.08093 12.1376C5.97063 9.65471 7.14479 8.57347 8.43992 6.2945C9.65677 4.15387 11.3646 2.66853 13.592 1.99139C13.592 1.99139 24.8781 2.63941 24.6682 0.00366211C24.6682 0.00366211 27.3794 0.713566 26.8635 2.55567C26.8635 2.55567 29.6993 2.02416 29.098 0.00366211C29.098 0.00366211 30.2437 0.557023 30.4714 1.82029L30.4643 1.81665Z" fill="#37A8D8"/>
<path d="M12.3645 20.3287C12.3645 20.3287 11.1477 17.6202 9.23699 19.2256C9.23699 19.2256 8.36527 19.921 9.4398 21.734C9.4398 21.734 10.9947 24.3406 12.8591 22.8953L12.3645 20.3287Z" fill="#D7EEF6"/>
<path d="M12.1723 14.0088C12.1723 14.0088 12.1794 18.8616 13.0511 21.4355L12.126 21.6248C12.126 21.6248 11.6386 18.2973 9.96631 18.2573L12.1723 14.0124V14.0088Z" fill="#37A8D8"/>
<path d="M9.93764 54.0001H0C0 54.0001 0.0355805 51.5864 0.0391386 51.4153C0.113858 49.0416 0.259738 46.6498 0.679588 44.3126C1.27734 40.9706 2.86423 38.0036 6.35824 37.1553C7.95581 36.7658 9.37903 37.756 10.2436 39.103C10.2436 39.103 11.8234 41.098 9.93764 54.0037V54.0001Z" fill="#37A8D8"/>
</g>
<defs>
<clipPath id="clip0_1345_34035">
<rect width="38" height="54" fill="white"/>
</clipPath>
</defs>
</svg>
