<svg width="40" height="40" viewBox="0 0 40 40" fill="none" xmlns="http://www.w3.org/2000/svg">
<rect width="40" height="40" rx="10" fill="#F28C28" fill-opacity="0.2"/>
<path d="M11.6667 18.9027V21.9365C11.6667 24.1523 11.6667 25.2602 11.958 26.1568C12.5468 27.969 13.9675 29.3897 15.7797 29.9785C16.6763 30.2698 17.7842 30.2698 20 30.2698C22.2158 30.2698 23.3237 30.2698 24.2203 29.9785C26.0325 29.3897 27.4532 27.969 28.042 26.1568C28.3333 25.2602 28.3333 24.1523 28.3333 21.9365V18.9066M28.3333 18.9066C27.1937 19.3685 25.7859 19.8702 24.1105 20.4685L21.6017 21.3645C20.8089 21.6477 20.4125 21.7893 20.0001 21.7893C19.5877 21.7893 19.1913 21.6477 18.3985 21.3645L15.8897 20.4685C10.6508 18.5975 8.03137 17.6619 8.03137 15.984C8.03137 14.3061 10.6508 13.3706 15.8897 11.4996L18.3985 10.6036C19.1913 10.3204 19.5877 10.1788 20.0001 10.1788C20.4125 10.1788 20.8089 10.3204 21.6017 10.6036L24.1105 11.4996C29.3494 13.3706 31.9689 14.3061 31.9689 15.984C31.9689 17.1254 30.7573 17.9242 28.3333 18.9066Z" stroke="#F28C28" stroke-width="1.78571"/>
<path fill-rule="evenodd" clip-rule="evenodd" d="M15.5148 10.6852L18.0981 9.76263C18.1375 9.74856 18.1764 9.73463 18.2148 9.72087C18.8931 9.47797 19.4295 9.28589 20 9.28589C20.5705 9.28589 21.1069 9.47797 21.7853 9.72087C21.8237 9.73464 21.8626 9.74856 21.902 9.76263L24.4852 10.6852C27.0418 11.5983 29.0511 12.3159 30.4144 13.0211C31.7321 13.7027 32.8616 14.5789 32.8616 15.984C32.8616 17.3891 31.7321 18.2652 30.4144 18.9468C29.0511 19.652 27.0418 20.3696 24.4852 21.2827L21.902 22.2053C21.8626 22.2194 21.8237 22.2333 21.7852 22.247C21.1069 22.4899 20.5705 22.682 20 22.682C19.4295 22.682 18.8931 22.4899 18.2148 22.247C18.1764 22.2333 18.1375 22.2194 18.0981 22.2053L15.5148 21.2827C12.9582 20.3696 10.9489 19.652 9.58564 18.9468C8.26798 18.2652 7.13843 17.3891 7.13843 15.984C7.13843 14.5789 8.26798 13.7027 9.58564 13.0211C10.9489 12.3159 12.9583 11.5983 15.5148 10.6852ZM10.4061 14.6072C9.10431 15.2806 8.92414 15.7112 8.92414 15.984C8.92414 16.2567 9.10431 16.6873 10.4061 17.3607C11.649 18.0037 13.5431 18.6823 16.1899 19.6276L18.6987 20.5236C19.55 20.8276 19.778 20.8963 20 20.8963C20.2221 20.8963 20.4501 20.8276 21.3013 20.5236L23.8102 19.6276C26.457 18.6823 28.351 18.0037 29.594 17.3607C30.8958 16.6873 31.0759 16.2567 31.0759 15.984C31.0759 15.7112 30.8958 15.2806 29.594 14.6072C28.351 13.9642 26.457 13.2856 23.8102 12.3403L21.3013 11.4443C20.4501 11.1403 20.2221 11.0716 20 11.0716C19.778 11.0716 19.55 11.1403 18.6987 11.4443L16.1899 12.3403C13.5431 13.2856 11.649 13.9642 10.4061 14.6072ZM8.09515 25.2101C7.60204 25.2101 7.13843 24.8243 7.13843 24.3312V15.984C7.13843 15.4908 7.60204 15.0911 8.09515 15.0911C8.58826 15.0911 8.92414 15.4908 8.92414 15.984L8.988 17.4441V24.3173C8.988 24.8104 8.58826 25.2101 8.09515 25.2101Z" fill="#F28C28"/>
</svg>
