<svg width="40" height="40" viewBox="0 0 40 40" fill="none" xmlns="http://www.w3.org/2000/svg">
<rect width="40" height="40" rx="10" fill="#FA2523" fill-opacity="0.2"/>
<path d="M24.7619 18.8095V25.9523M20 14.0475V25.9523M15.2381 21.1904V25.9523M20 30.7142C15.536 30.7142 13.3041 30.7142 11.7394 29.5774C11.2341 29.2103 10.7897 28.7659 10.4225 28.2606C9.28572 26.6959 9.28572 24.4639 9.28572 19.9999C9.28572 15.536 9.28572 13.304 10.4225 11.7393C10.7897 11.234 11.2341 10.7896 11.7394 10.4224C13.3041 9.28564 15.536 9.28564 20 9.28564C24.464 9.28564 26.696 9.28564 28.2606 10.4224C28.766 10.7896 29.2103 11.234 29.5775 11.7393C30.7143 13.304 30.7143 15.536 30.7143 19.9999C30.7143 24.4639 30.7143 26.6959 29.5775 28.2606C29.2103 28.7659 28.766 29.2103 28.2606 29.5774C26.696 30.7142 24.464 30.7142 20 30.7142Z" stroke="#FA2523" stroke-width="1.78571" stroke-linecap="round"/>
</svg>
