<svg width="40" height="40" viewBox="0 0 40 40" fill="none" xmlns="http://www.w3.org/2000/svg">
<rect width="40" height="40" rx="10" fill="#2ECC71" fill-opacity="0.2"/>
<path d="M19.1072 28.3333C19.1072 28.8264 19.5069 29.2262 20 29.2262C20.4931 29.2262 20.8929 28.8264 20.8929 28.3333H19.1072ZM20.8929 11.6666C20.8929 11.1735 20.4931 10.7738 20 10.7738C19.5069 10.7738 19.1071 11.1735 19.1071 11.6666H20.8929ZM22.9021 15.7759C23.1486 16.2029 23.6947 16.3492 24.1217 16.1027C24.5488 15.8561 24.6951 15.3101 24.4485 14.883L22.9021 15.7759ZM23.2282 14.555L22.455 15.0015V15.0015L23.2282 14.555ZM18.9644 19.619L19.2726 18.781L19.2726 18.781L18.9644 19.619ZM21.0359 20.381L21.3441 19.543L21.3441 19.543L21.0359 20.381ZM16.7721 25.4449L15.9988 25.8914L16.7721 25.4449ZM17.0982 24.2241C16.8517 23.797 16.3056 23.6507 15.8785 23.8973C15.4515 24.1438 15.3052 24.6899 15.5517 25.1169L17.0982 24.2241ZM21.5808 26.7334L21.1344 25.9602L21.5808 26.7334ZM18.4195 13.2665L18.8659 14.0398L18.4195 13.2665ZM31.0119 20C31.0119 26.0817 26.0817 31.0119 20 31.0119V32.7976C27.0679 32.7976 32.7976 27.0679 32.7976 20H31.0119ZM20 31.0119C13.9183 31.0119 8.9881 26.0817 8.9881 20H7.20239C7.20239 27.0679 12.9321 32.7976 20 32.7976V31.0119ZM8.9881 20C8.9881 13.9183 13.9183 8.98807 20 8.98807V7.20236C12.9321 7.20236 7.20239 12.932 7.20239 20H8.9881ZM20 8.98807C26.0817 8.98807 31.0119 13.9183 31.0119 20H32.7976C32.7976 12.932 27.0679 7.20236 20 7.20236V8.98807ZM24.4485 14.883L24.0014 14.1086L22.455 15.0015L22.9021 15.7759L24.4485 14.883ZM17.5453 24.9985L17.0982 24.2241L15.5517 25.1169L15.9988 25.8914L17.5453 24.9985ZM20.7277 21.2189C22.8183 21.9879 23.0635 24.8464 21.1344 25.9602L22.0272 27.5067C25.2676 25.6359 24.8557 20.8346 21.3441 19.543L20.7277 21.2189ZM17.973 12.4933C14.7327 14.3641 15.1446 19.1654 18.6561 20.457L19.2726 18.781C17.1819 18.0121 16.9367 15.1536 18.8659 14.0398L17.973 12.4933ZM20.8929 28.3333V27.2012H19.1072V28.3333H20.8929ZM20.8929 27.2012V20H19.1072V27.2012H20.8929ZM21.1344 25.9602C20.7599 26.1764 20.3567 26.2893 19.9553 26.3095L20.0448 28.093C20.7224 28.059 21.4019 27.8677 22.0272 27.5067L21.1344 25.9602ZM19.9553 26.3095C18.9994 26.3575 18.0548 25.8809 17.5453 24.9985L15.9988 25.8914C16.8563 27.3764 18.4459 28.1732 20.0448 28.093L19.9553 26.3095ZM18.6561 20.457L19.6918 20.8379L20.3083 19.162L19.2726 18.781L18.6561 20.457ZM19.6918 20.838L20.7277 21.2189L21.3441 19.543L20.3082 19.162L19.6918 20.838ZM20.8929 20L20.8929 12.7988H19.1071L19.1072 20L20.8929 20ZM20.8929 12.7988V11.6666H19.1071V12.7988H20.8929ZM24.0014 14.1086C23.144 12.6234 21.5542 11.8267 19.9552 11.907L20.0448 13.6905C21.0008 13.6424 21.9455 14.119 22.455 15.0015L24.0014 14.1086ZM19.9552 11.907C19.2777 11.9411 18.5983 12.1323 17.973 12.4933L18.8659 14.0398C19.2404 13.8236 19.6435 13.7107 20.0448 13.6905L19.9552 11.907Z" fill="#2ECC71"/>
</svg>
