<svg width="48" height="48" viewBox="0 0 48 48" fill="none" xmlns="http://www.w3.org/2000/svg">
<rect width="48" height="48" rx="12" fill="#36A8D9" fill-opacity="0.2"/>
<g clip-path="url(#clip0_1492_4484)">
<path d="M8.69805 31.4961C8.69805 31.0564 8.69805 30.682 8.69805 30.3067C8.69363 26.8525 8.69363 23.3992 8.68124 19.945C8.67328 17.7839 8.64233 15.6219 8.62994 13.4607C8.62818 13.1577 8.66444 12.8521 8.70424 12.5508C8.78207 11.9622 9.21192 11.5913 9.8169 11.5895C11.1728 11.5852 12.5296 11.5913 13.8854 11.5886C21.6245 11.5756 29.3627 11.559 37.1018 11.5547C37.5378 11.5547 37.9872 11.6113 38.4082 11.7227C39.0043 11.8812 39.282 12.2626 39.2971 12.8712C39.3156 13.6253 39.3006 14.3802 39.3006 15.1343C39.3006 20.2716 39.3041 25.4089 39.3006 30.5453C39.3006 31.4944 39.2873 31.4944 38.3321 31.4944C28.6622 31.4944 18.9924 31.4944 9.3216 31.4944C9.13232 31.4944 8.94305 31.4944 8.69893 31.4944L8.69805 31.4961ZM10.4121 12.9156C10.4121 13.1002 10.4121 13.2291 10.4121 13.3571C10.4121 16.9254 10.4104 20.4945 10.413 24.0627C10.4148 25.8024 10.4148 27.543 10.4369 29.2828C10.4449 29.9471 10.4794 29.9724 11.1816 29.9837C12.4632 30.0046 13.7448 30.0081 15.0264 30.0081C21.5838 30.0063 28.1404 30.0011 34.6978 29.9985C35.4921 29.9985 36.2872 29.9985 37.0815 30.0142C37.4176 30.0211 37.5378 29.9053 37.537 29.5596C37.5325 27.5874 37.5502 25.6152 37.5617 23.643C37.5776 20.7426 37.5989 17.8422 37.606 14.941C37.6077 14.2809 37.5591 13.6201 37.5317 12.9148H10.4121V12.9156Z" fill="#36A8D9"/>
<path d="M43.0224 35.1637H4.91602C5.03542 35.0287 5.09733 34.9399 5.17605 34.8729C6.22414 33.9821 7.27223 33.0914 8.32917 32.2102C8.43089 32.1257 8.58655 32.0578 8.71657 32.0578C15.0228 32.0456 21.3299 32.0378 27.6362 32.0386C31.4235 32.0386 35.2099 32.05 38.9972 32.0743C39.236 32.0761 39.5225 32.1727 39.703 32.3225C40.7909 33.2263 41.854 34.158 43.0224 35.1637Z" fill="#36A8D9"/>
<path d="M4.63574 35.7227H43.2657C43.2949 36.091 43.141 36.2886 42.8562 36.3583C42.6024 36.4201 42.3335 36.4532 42.0717 36.4541C32.9192 36.4784 23.7668 36.5072 14.6152 36.5133C11.6832 36.515 8.75116 36.4567 5.81916 36.4192C5.3672 36.4131 4.8772 36.4488 4.66316 35.9073C4.64812 35.8698 4.65078 35.8254 4.63663 35.7235L4.63574 35.7227Z" fill="#36A8D9"/>
<path d="M17.3535 18.7234C19.3789 17.8405 21.3257 16.988 23.2777 16.1469C23.3803 16.1025 23.5395 16.1042 23.6412 16.1512C25.4933 17.0011 27.3418 17.8614 29.1894 18.7208C29.2275 18.7382 29.2558 18.7756 29.3327 18.8418C28.205 19.2563 27.1092 19.669 26.0063 20.0608C25.2739 20.3212 24.5327 20.5606 23.7898 20.7879C23.6182 20.8401 23.4006 20.8628 23.2361 20.807C21.3893 20.1766 19.5479 19.5279 17.7064 18.8827C17.6118 18.8496 17.5224 18.8 17.3535 18.7234Z" fill="#36A8D9"/>
<path d="M19.5176 20.0034C20.7523 20.4797 21.8915 20.9055 23.0174 21.3618C23.3279 21.4871 23.5923 21.4889 23.9001 21.3705C24.927 20.9734 25.9627 20.5973 26.9966 20.2159C27.132 20.1662 27.2735 20.1332 27.5185 20.0618C27.5185 20.8916 27.5185 21.6691 27.5176 22.4467C27.5176 22.519 27.4866 22.5938 27.4981 22.6626C27.6193 23.3836 27.1788 23.6483 26.5747 23.8259C24.7819 24.3536 22.9714 24.5373 21.1247 24.1612C20.8956 24.1141 20.6683 24.0419 20.4507 23.9565C19.6547 23.6439 19.5185 23.4384 19.5185 22.5956C19.5185 21.771 19.5185 20.9464 19.5185 20.0034H19.5176Z" fill="#36A8D9"/>
</g>
<defs>
<clipPath id="clip0_1492_4484">
<rect width="40" height="26" fill="white" transform="translate(4 11)"/>
</clipPath>
</defs>
</svg>
