<svg width="40" height="40" viewBox="0 0 40 40" fill="none" xmlns="http://www.w3.org/2000/svg">
<rect width="40" height="40" rx="10" fill="#36A8D9" fill-opacity="0.2"/>
<path d="M22.6786 14.9404C22.6786 16.4198 21.4794 17.619 20 17.619V19.4047C22.4656 19.4047 24.4643 17.406 24.4643 14.9404H22.6786ZM20 17.619C18.5207 17.619 17.3215 16.4198 17.3215 14.9404H15.5357C15.5357 17.406 17.5345 19.4047 20 19.4047V17.619ZM17.3215 14.9404C17.3215 13.4611 18.5207 12.2619 20 12.2619V10.4762C17.5345 10.4762 15.5357 12.4749 15.5357 14.9404H17.3215ZM20 12.2619C21.4794 12.2619 22.6786 13.4611 22.6786 14.9404H24.4643C24.4643 12.4749 22.4656 10.4762 20 10.4762V12.2619ZM16.4286 22.9762H23.5715V21.1904H16.4286V22.9762ZM23.5715 28.3333H16.4286V30.119H23.5715V28.3333ZM16.4286 28.3333C14.9493 28.3333 13.75 27.1341 13.75 25.6547H11.9643C11.9643 28.1203 13.963 30.119 16.4286 30.119V28.3333ZM26.25 25.6547C26.25 27.1341 25.0508 28.3333 23.5715 28.3333V30.119C26.037 30.119 28.0358 28.1203 28.0358 25.6547H26.25ZM23.5715 22.9762C25.0508 22.9762 26.25 24.1754 26.25 25.6547H28.0358C28.0358 23.1892 26.037 21.1904 23.5715 21.1904V22.9762ZM16.4286 21.1904C13.963 21.1904 11.9643 23.1892 11.9643 25.6547H13.75C13.75 24.1754 14.9493 22.9762 16.4286 22.9762V21.1904Z" fill="#36A8D9"/>
<path d="M14.943 18.0817C14.7553 17.7801 14.4029 17.6191 14.0476 17.6191C12.5683 17.6191 11.369 16.4198 11.369 14.9405C11.369 13.4611 12.5683 12.2619 14.0476 12.2619C14.4029 12.2619 14.7553 12.1009 14.943 11.7992C14.9513 11.7859 14.9597 11.7726 14.9681 11.7593C15.2807 11.2658 15.1223 10.5671 14.5417 10.5032C14.3794 10.4854 14.2146 10.4762 14.0476 10.4762C11.5821 10.4762 9.58333 12.4749 9.58333 14.9405C9.58333 17.406 11.5821 19.4048 14.0476 19.4048C14.2146 19.4048 14.3794 19.3956 14.5417 19.3777C15.1223 19.3138 15.2807 18.6151 14.9681 18.1217C14.9597 18.1084 14.9513 18.0951 14.943 18.0817Z" fill="#36A8D9"/>
<path d="M11.3194 27.5201C11.1842 27.2946 10.9457 27.1429 10.6828 27.1429H10.4762C8.99685 27.1429 7.79762 25.9436 7.79762 24.4643C7.79762 22.985 8.99685 21.7857 10.4762 21.7857H10.6828C10.9457 21.7857 11.1842 21.634 11.3194 21.4085C11.6493 20.8581 11.2913 20 10.6496 20H10.4762C8.01063 20 6.0119 21.9987 6.0119 24.4643C6.0119 26.9299 8.01063 28.9286 10.4762 28.9286H10.6496C11.2913 28.9286 11.6493 28.0705 11.3194 27.5201Z" fill="#36A8D9"/>
<path d="M25.0319 18.1217C24.7193 18.6151 24.8777 19.3138 25.4583 19.3777C25.6206 19.3956 25.7854 19.4048 25.9524 19.4048C28.4179 19.4048 30.4167 17.406 30.4167 14.9405C30.4167 12.4749 28.4179 10.4762 25.9524 10.4762C25.7854 10.4762 25.6206 10.4854 25.4583 10.5032C24.8777 10.5671 24.7193 11.2658 25.0319 11.7593C25.0403 11.7726 25.0487 11.7859 25.057 11.7992C25.2447 12.1009 25.5971 12.2619 25.9524 12.2619C27.4317 12.2619 28.631 13.4611 28.631 14.9405C28.631 16.4198 27.4317 17.6191 25.9524 17.6191C25.5971 17.6191 25.2447 17.7801 25.057 18.0817C25.0487 18.0951 25.0403 18.1084 25.0319 18.1217Z" fill="#36A8D9"/>
<path d="M28.6806 27.5201C28.3507 28.0705 28.7087 28.9286 29.3504 28.9286H29.5238C31.9894 28.9286 33.9881 26.9299 33.9881 24.4643C33.9881 21.9987 31.9894 20 29.5238 20H29.3504C28.7087 20 28.3507 20.8581 28.6806 21.4085C28.8158 21.634 29.0543 21.7857 29.3172 21.7857H29.5238C31.0031 21.7857 32.2024 22.985 32.2024 24.4643C32.2024 25.9436 31.0031 27.1429 29.5238 27.1429H29.3172C29.0543 27.1429 28.8158 27.2946 28.6806 27.5201Z" fill="#36A8D9"/>
</svg>
