<svg width="72" height="72" viewBox="0 0 72 72" fill="none" xmlns="http://www.w3.org/2000/svg">
<path d="M68 36C68 42.329 66.1232 48.5159 62.607 53.7782C59.0908 59.0406 54.0931 63.1421 48.2459 65.5641C42.3987 67.9861 35.9645 68.6199 29.7571 67.3851C23.5498 66.1504 17.8479 63.1027 13.3726 58.6274C8.89733 54.1522 5.84962 48.4503 4.61488 42.2429C3.38015 36.0356 4.01384 29.6014 6.43583 23.7542C8.85782 17.907 12.9593 12.9092 18.2217 9.39301C23.4841 5.8768 29.6709 4.00002 35.9999 4" stroke="#FAD1A9" stroke-width="7"/>
<path d="M36 4C42.329 4 48.5159 5.87676 53.7782 9.39297C59.0406 12.9092 63.1421 17.9069 65.5641 23.7541C67.9861 29.6013 68.6199 36.0355 67.3851 42.2429C66.1504 48.4502 63.1027 54.1521 58.6274 58.6274C54.1522 63.1027 48.4503 66.1504 42.2429 67.3851C36.0356 68.6199 29.6014 67.9862 23.7542 65.5642C17.907 63.1422 12.9092 59.0407 9.39302 53.7783C5.8768 48.5159 4.00002 42.3291 4 36.0001" stroke="#F5A353" stroke-width="7" stroke-linecap="round"/>
<path d="M30.854 31.858L29.23 36.296C29.2113 36.352 29.188 36.4127 29.16 36.478C29.1413 36.534 29.118 36.604 29.09 36.688C28.7447 37.612 28.46 38.438 28.236 39.166C28.0213 39.8847 27.914 40.496 27.914 41H26.178C26.178 40.4493 26.0567 39.796 25.814 39.04C25.5807 38.2747 25.2633 37.36 24.862 36.296L23.238 31.858L24.876 31.27L26.514 35.778C26.7007 36.254 26.878 36.758 27.046 37.29C27.214 36.758 27.3913 36.254 27.578 35.778L29.23 31.27L30.854 31.858ZM37.5758 32.88C38.4158 33.72 39.0458 34.392 39.4658 34.896C39.8951 35.3907 40.2264 35.89 40.4598 36.394C40.6931 36.8887 40.8098 37.4253 40.8098 38.004C40.8098 39.0027 40.5438 39.7587 40.0118 40.272C39.4798 40.7853 38.7191 41.042 37.7298 41.042C36.9738 41.042 36.4558 40.776 36.1758 40.244C35.8958 40.776 35.3778 41.042 34.6218 41.042C33.6418 41.042 32.8858 40.7853 32.3538 40.272C31.8218 39.7587 31.5557 39.0027 31.5557 38.004C31.5557 37.4253 31.6678 36.8887 31.8918 36.394C32.1251 35.89 32.4518 35.3907 32.8718 34.896C33.3011 34.4013 33.9358 33.734 34.7758 32.894L34.9998 32.67L34.2298 31.9L35.4758 30.738C35.5318 30.8033 35.8444 31.13 36.4138 31.718C36.9831 32.2967 37.3704 32.684 37.5758 32.88ZM37.8418 39.404C38.1591 39.404 38.4298 39.3293 38.6538 39.18C38.8871 39.0307 38.9991 38.6993 38.9898 38.186C38.9804 37.822 38.9058 37.4673 38.7658 37.122C38.6258 36.7673 38.3644 36.3473 37.9818 35.862C37.6084 35.3673 37.0578 34.756 36.3298 34.028L36.1758 33.86L36.0218 34.028C35.3031 34.756 34.7524 35.3627 34.3698 35.848C33.9871 36.3333 33.7258 36.7533 33.5858 37.108C33.4551 37.4627 33.3851 37.822 33.3758 38.186C33.3664 38.6993 33.4738 39.0307 33.6978 39.18C33.9311 39.3293 34.2064 39.404 34.5238 39.404C34.7851 39.404 34.9811 39.334 35.1118 39.194C35.2518 39.0447 35.3218 38.8627 35.3218 38.648V37.57H37.0438V38.648C37.0438 38.8627 37.1091 39.0447 37.2398 39.194C37.3798 39.334 37.5804 39.404 37.8418 39.404ZM41.1547 40.258L46.6427 31.41L47.8607 32.18L42.3587 41.014L41.1547 40.258ZM42.6667 34.112C42.3681 34.112 42.1021 33.9953 41.8687 33.762C41.6447 33.5287 41.5327 33.2627 41.5327 32.964C41.5327 32.6467 41.6401 32.376 41.8547 32.152C42.0787 31.928 42.3494 31.816 42.6667 31.816C43.0027 31.816 43.2781 31.928 43.4927 32.152C43.7074 32.376 43.8147 32.6467 43.8147 32.964C43.8147 33.2907 43.6981 33.566 43.4647 33.79C43.2407 34.0047 42.9747 34.112 42.6667 34.112ZM46.2227 40.818C45.9241 40.818 45.6581 40.706 45.4247 40.482C45.2007 40.2487 45.0887 39.978 45.0887 39.67C45.0887 39.362 45.1961 39.096 45.4107 38.872C45.6347 38.648 45.9054 38.536 46.2227 38.536C46.5587 38.536 46.8341 38.648 47.0487 38.872C47.2634 39.096 47.3707 39.362 47.3707 39.67C47.3707 39.9967 47.2541 40.272 47.0207 40.496C46.7967 40.7107 46.5307 40.818 46.2227 40.818Z" fill="#F28C28"/>
</svg>
