<svg width="48" height="48" viewBox="0 0 48 48" fill="none" xmlns="http://www.w3.org/2000/svg">
<rect width="48" height="48" rx="12" fill="#F28C28" fill-opacity="0.2"/>
<g clip-path="url(#clip0_1492_4485)">
<path d="M26.3993 14.7911C26.3133 14.8261 26.2496 14.8835 26.2146 14.9663L25.775 14.7274C25.8165 14.7274 25.861 14.721 25.9088 14.7019C26.0426 14.6509 26.1286 14.5554 26.1477 14.4088C26.1636 14.2751 26.1127 14.1699 26.0203 14.0776C25.7719 13.8291 25.5266 13.5775 25.275 13.3354C25.2049 13.2653 25.2081 13.2271 25.275 13.1602C26.0012 12.4371 26.7242 11.7109 27.4472 10.9878C28.0938 10.3412 28.7403 9.70091 29.3805 9.05109C29.4697 8.96509 29.5047 8.99376 29.5748 9.06384C30.4125 9.90477 31.2501 10.7457 32.0941 11.5803C32.1706 11.6567 32.1515 11.7013 32.1005 11.7746C31.4731 12.7015 31.3648 13.6953 31.8234 14.7083C32.2916 15.7403 33.1261 16.3169 34.26 16.4284C34.9798 16.4984 35.6359 16.3105 36.2283 15.8932C36.2856 15.8518 36.3271 15.8168 36.3971 15.89C37.2252 16.7246 38.0533 17.5528 38.8814 18.3842L38.9037 18.4065L38.9101 18.4128C38.9388 18.4574 39.0534 18.4638 38.9834 18.5594L38.9738 18.5657C38.9674 18.5944 38.9483 18.6135 38.9197 18.6199V18.6262C38.7955 18.7791 38.6553 18.9129 38.5056 19.034L38.4992 19.0403C38.4929 19.069 38.4769 19.0881 38.4483 19.0945L38.4419 19.1009C38.3209 19.2506 38.1839 19.3875 38.0342 19.5086L38.0279 19.515C38.0183 19.5436 38.0024 19.5596 37.9737 19.5691H37.9673C37.8845 19.6902 37.7762 19.7857 37.668 19.8781C37.4004 20.1457 37.1361 20.4132 36.8685 20.6808C36.7316 20.8146 36.6042 20.9611 36.4385 21.0694C36.3079 21.2605 36.1264 21.4039 35.9671 21.5631C35.9226 21.6109 35.9003 21.6714 35.8397 21.7001C35.8397 21.7097 35.8334 21.716 35.8238 21.7224L35.8015 21.7447C35.7346 21.8116 35.6678 21.8785 35.5977 21.9422C35.3333 22.2129 35.0658 22.4837 34.8014 22.7545C34.7536 22.8054 34.7186 22.7799 34.6804 22.7417C34.5657 22.6239 34.4511 22.5092 34.3364 22.3945C34.1963 22.2575 34.0466 22.2257 33.8937 22.2958C33.8236 22.3244 33.7727 22.3754 33.7344 22.4423L33.2503 22.2289C33.3841 22.2289 33.5019 22.197 33.5847 22.0728C33.6867 21.9199 33.6644 21.767 33.5656 21.6205V21.6141C33.3363 21.4102 33.1229 21.1936 32.9223 20.9675V20.9611C32.8522 20.9324 32.8172 20.8751 32.7757 20.821L32.7694 20.8146L32.7152 20.7604V20.7541C32.7152 20.7541 32.6961 20.7381 32.6866 20.7286V20.7222C32.6866 20.7222 32.6675 20.7095 32.6611 20.7031L32.6515 20.6935C32.6515 20.6935 32.6356 20.6776 32.626 20.6712H32.6229C32.6101 20.6553 32.5942 20.6394 32.5783 20.6266C32.5655 20.6107 32.5496 20.5948 32.5369 20.5821H32.5337C32.5337 20.5821 32.5178 20.5598 32.5082 20.5534V20.5438C32.5082 20.5438 32.4891 20.5311 32.4827 20.5247L32.4732 20.5183C32.4732 20.5183 32.4572 20.5024 32.4477 20.4929C32.4318 20.4769 32.4158 20.4642 32.3999 20.4515C32.3553 20.4292 32.3075 20.4069 32.263 20.3877C32.0496 20.3877 31.9285 20.4323 31.8585 20.5629L31.4094 20.3623C31.5049 20.3623 31.6005 20.3209 31.6737 20.2476C31.8107 20.1138 31.8298 19.8972 31.6928 19.7539C31.3138 19.3621 30.9252 18.9766 30.5335 18.5976C30.4252 18.4893 30.2755 18.4861 30.1354 18.5498C30.0685 18.5785 30.0143 18.6231 29.9793 18.674L29.5398 18.4734C29.6257 18.4734 29.7117 18.4447 29.7977 18.381C29.9474 18.2185 29.9443 18.0019 29.7754 17.8299C29.4219 17.4732 29.0684 17.1196 28.7116 16.766C28.5269 16.5876 28.3008 16.5844 28.1511 16.7564C28.132 16.7756 28.1192 16.7979 28.1065 16.817L27.6606 16.6067C27.753 16.6067 27.8485 16.5685 27.9249 16.4921C28.0683 16.3519 28.0746 16.1321 27.9186 15.976C27.5459 15.597 27.1669 15.2211 26.7879 14.8484C26.6764 14.7401 26.5395 14.7338 26.4025 14.7911H26.3993Z" fill="#F28C28"/>
<path d="M26.0429 23.4713C26.0429 23.4713 26.0237 23.4904 26.0142 23.5032C26.0046 23.5127 25.9951 23.5191 25.9855 23.5286C25.9569 23.5605 25.925 23.5892 25.8963 23.621L25.8677 23.6497C25.839 23.6783 25.8072 23.707 25.7785 23.7389L25.7498 23.7675C25.718 23.7962 25.6893 23.8249 25.6575 23.8535L25.6288 23.8822C25.6288 23.8822 25.6129 23.9013 25.6001 23.9141C25.581 23.9364 25.5587 23.9555 25.5396 23.9746C25.5301 23.9841 25.5205 23.9937 25.5141 24.0033L25.4218 24.0956C25.4218 24.0956 25.4027 24.1116 25.3963 24.1211C25.3644 24.153 25.3358 24.1816 25.3039 24.2103L25.2753 24.239C25.2466 24.2708 25.2179 24.2995 25.1893 24.3282C24.9122 24.6085 24.6414 24.8888 24.3643 25.1627C22.8738 26.6566 21.3832 28.1474 19.8926 29.6381C18.9307 30.6001 17.9656 31.5621 17.0037 32.5241C16.6247 32.9031 16.2425 33.2822 15.8667 33.6676C15.6597 33.881 15.7616 34.2091 16.0482 34.2792C16.2139 34.3206 16.3285 34.2378 16.44 34.1295C18.8925 31.6736 21.3449 29.224 23.7974 26.7681C25.0205 25.545 26.2403 24.3154 27.4666 23.0922C27.9316 22.6304 28.3711 22.143 28.8775 21.7194L28.9349 21.662C29.0018 21.5442 29.1037 21.4582 29.2056 21.3753C29.2247 21.3626 29.2406 21.3467 29.2566 21.3339H29.2597C29.2661 21.318 29.2693 21.3021 29.2788 21.2925C29.4445 21.0887 29.4477 20.8944 29.2852 20.7415C29.1292 20.5949 28.9126 20.614 28.7342 20.7924C28.5686 20.9549 28.4061 21.1205 28.2437 21.283C27.6895 21.834 27.1321 22.3851 26.5779 22.9393H26.5748C26.5748 22.9393 26.5556 22.9553 26.5461 22.968C26.5365 22.9967 26.5142 23.0158 26.4856 23.0285C26.4792 23.0381 26.4697 23.0477 26.4601 23.0572C26.4282 23.0859 26.3996 23.1177 26.3677 23.1464C26.3582 23.156 26.3518 23.1655 26.3422 23.1751C26.32 23.1942 26.3008 23.2133 26.2817 23.2324H26.2785C26.2785 23.2324 26.2594 23.2547 26.2499 23.2643L26.2212 23.2929C26.1703 23.3598 26.1129 23.4203 26.0429 23.4713ZM19.9085 22.4807C19.9117 22.4456 19.9308 22.4265 19.9658 22.4233V22.4138C19.9722 22.3978 19.9849 22.3819 19.9977 22.3692C21.3418 21.0218 22.689 19.6744 24.0331 18.327C24.4249 17.9352 24.8134 17.5434 25.2052 17.1516C25.3167 17.0401 25.3358 16.8617 25.253 16.7215C25.1702 16.5846 24.995 16.5145 24.8453 16.5559C24.7338 16.5846 24.6606 16.6642 24.5841 16.7407C22.826 18.499 21.0647 20.2605 19.3065 22.0188C18.8574 22.4679 18.402 22.9139 17.9529 23.3598L17.9401 23.3534C17.9433 23.3757 17.9401 23.3853 17.9178 23.3853H17.9115C17.9115 23.4235 17.8892 23.4426 17.851 23.4458H17.8541C17.8414 23.4936 17.8127 23.5223 17.7681 23.535C17.7681 23.5605 17.7554 23.5764 17.7331 23.586C17.4337 23.8886 17.1343 24.1944 16.8349 24.497C15.9431 25.3889 15.0513 26.2808 14.1595 27.1727C13.7741 27.5549 13.3919 27.9403 13.0065 28.3226C12.5957 28.7335 12.1848 29.1444 11.7771 29.5585C11.621 29.7146 11.6274 29.9471 11.7707 30.0873C11.9109 30.2274 12.1434 30.2179 12.2994 30.0682C12.4109 29.9599 12.5224 29.8484 12.6339 29.7369C13.8792 28.4882 15.1246 27.2396 16.3731 25.9909C17.1057 25.2551 17.8414 24.5193 18.5803 23.7867C19.0039 23.363 19.4339 22.9425 19.8607 22.5189C19.8703 22.4966 19.8862 22.4807 19.9117 22.4807H19.9085ZM24.5554 13.877C24.6478 13.7815 24.6988 13.7878 24.7848 13.8802C25.0205 14.1255 25.2657 14.3644 25.5046 14.6033C25.5842 14.6829 25.6766 14.7275 25.7753 14.7275L26.2148 14.9664C26.1957 15.0174 26.183 15.0779 26.183 15.148C26.1766 15.2117 26.2085 15.3009 26.2754 15.371C26.6512 15.7468 27.0238 16.1291 27.406 16.4986C27.4825 16.5718 27.5685 16.6069 27.6577 16.6069L28.1036 16.8171C27.9953 16.9923 28.0558 17.1771 28.2055 17.3363C28.5495 17.6995 28.9126 18.0467 29.2693 18.4002C29.3585 18.4448 29.4477 18.4735 29.5368 18.4735L29.9764 18.6742C29.9413 18.7283 29.919 18.792 29.9159 18.8653C29.9031 18.9417 29.9222 19.0086 29.97 19.0596C30.3713 19.4641 30.7694 19.8719 31.1803 20.27C31.2472 20.3337 31.3268 20.3624 31.4064 20.3624L31.8555 20.5631C31.846 20.579 31.8364 20.5981 31.8301 20.6204C31.7664 20.802 31.8332 20.9421 31.967 21.0695C32.139 21.232 32.2983 21.404 32.4607 21.5728C32.4894 21.5824 32.5085 21.6047 32.5212 21.6302C32.5403 21.6525 32.5594 21.6716 32.5785 21.6907C32.6008 21.7098 32.6199 21.7289 32.6391 21.748C32.6868 21.7799 32.725 21.8213 32.7569 21.8691C32.827 21.9169 32.8843 21.9806 32.9353 22.0443C33.0117 22.1112 33.0563 22.2195 33.1837 22.2258C33.206 22.2258 33.2283 22.229 33.2506 22.229L33.7347 22.4424C33.6965 22.5125 33.6774 22.6017 33.6806 22.6973C33.6837 22.7737 33.7283 22.8215 33.7761 22.8693C33.9003 23.0031 34.0309 23.1305 34.1615 23.2579C34.2029 23.3025 34.2188 23.328 34.1615 23.3853C33.2219 24.3218 32.2919 25.2647 31.3555 26.2043C30.4605 27.0994 29.5655 27.9945 28.6705 28.8928C27.1927 30.3676 25.7148 31.8456 24.2369 33.3236C23.1094 34.448 21.9788 35.5693 20.8544 36.6969C20.106 37.4422 19.3638 38.1876 18.6249 38.9393C18.5389 39.0285 18.4975 39.0158 18.4211 38.9362C17.1885 37.7003 15.9559 36.4675 14.7201 35.2348C12.8314 33.3459 10.9426 31.457 9.05072 29.5712C8.97428 29.4948 8.97109 29.4629 9.05072 29.3833C9.80239 28.6411 10.5445 27.8957 11.293 27.1472C12.4109 26.0291 13.5257 24.9111 14.6468 23.7962C14.7806 23.6592 14.9271 23.535 15.0641 23.4044C15.1118 23.3343 15.1564 23.2611 15.2392 23.226C15.3985 23.0158 15.5991 22.847 15.7807 22.6622C16.9114 21.5282 18.0484 20.3974 19.1791 19.2635C19.8543 18.585 20.5264 17.9033 21.2048 17.228C22.0138 16.4189 22.8228 15.613 23.6318 14.8072C23.9439 14.4982 24.2561 14.1924 24.5586 13.877H24.5554ZM27.2086 19.2635C27.3838 19.0883 27.3997 18.8653 27.2532 18.7124C27.113 18.5627 26.82 18.5436 26.6862 18.7124C26.5461 18.8876 26.3741 19.0246 26.2276 19.1838C25.8295 19.6107 25.4154 20.0152 24.9982 20.4197C24.9663 20.4548 24.9345 20.493 24.9026 20.528L21.7877 23.6433C21.4819 23.9491 21.1729 24.2517 20.8704 24.5607C20.2429 25.2009 19.5964 25.8189 18.9689 26.456C17.5516 27.8957 16.1151 29.3164 14.6882 30.7435C14.4079 31.0238 14.1277 31.3009 13.8506 31.5812C13.6945 31.7373 13.6658 31.9029 13.7582 32.059C13.892 32.2788 14.1627 32.3043 14.3633 32.1036C15.1628 31.3073 15.959 30.5077 16.7553 29.7114C18.386 28.0805 20.0168 26.4496 21.6507 24.8187C22.1221 24.3473 22.5998 23.8758 23.0744 23.4044C23.1063 23.3757 23.1349 23.3439 23.1668 23.3152L23.1954 23.2866C23.2655 23.2165 23.3356 23.1464 23.4025 23.0763C23.412 23.0668 23.4216 23.0572 23.4311 23.0508C23.4598 23.019 23.4916 22.9871 23.5235 22.9585C23.5299 22.9489 23.5394 22.9393 23.549 22.9298C23.5713 22.9043 23.5904 22.8788 23.6159 22.8533C24.8134 21.6557 26.011 20.4611 27.2086 19.2635ZM26.9697 27.6951C27.1353 27.5294 27.1321 27.3096 26.9729 27.1599C26.82 27.0134 26.6098 27.023 26.4346 27.1982C25.4918 28.141 24.5491 29.0839 23.6095 30.0267C22.0456 31.5876 20.485 33.1484 18.9243 34.7092L17.9306 35.703C17.8096 35.8241 17.7745 35.9706 17.8446 36.1235C17.9019 36.2445 17.9879 36.3465 18.1567 36.3401C18.2969 36.3465 18.4052 36.2668 18.5071 36.1649C19.6855 34.9831 20.8672 33.8046 22.0488 32.6228C23.2878 31.3805 24.53 30.1414 25.7689 28.9023C26.1703 28.501 26.5716 28.0996 26.9697 27.6951Z" fill="#F28C28"/>
<path d="M32.4479 20.4897C32.4479 20.4897 32.467 20.5088 32.4734 20.5183L32.4829 20.5247C32.4829 20.5247 32.4957 20.5374 32.5052 20.5438V20.5534C32.5052 20.5534 32.5243 20.5693 32.5339 20.5788H32.5371C32.5498 20.5948 32.5657 20.6107 32.5785 20.6266C32.5944 20.6394 32.6103 20.6553 32.6231 20.668H32.6262C32.6262 20.668 32.6422 20.6871 32.6517 20.6935L32.6613 20.7031C32.6613 20.7031 32.674 20.7158 32.6836 20.7222V20.7286C32.6836 20.7286 32.7027 20.7477 32.7122 20.754V20.7604C32.7345 20.7795 32.7505 20.7954 32.7696 20.8146L32.7759 20.8209C32.8173 20.8751 32.8524 20.9324 32.9193 20.9611V20.9675C33.1231 21.1936 33.3365 21.4102 33.5658 21.6141V21.6205C33.6646 21.767 33.6869 21.9199 33.5849 22.0728C33.5021 22.197 33.3843 22.2289 33.2505 22.2289C33.2282 22.2289 33.2059 22.2257 33.1836 22.2257C33.0562 22.2193 33.0116 22.111 32.9352 22.0441C32.8842 21.9804 32.8269 21.9167 32.7568 21.8689C32.725 21.8211 32.6868 21.7797 32.639 21.751C32.6199 21.7288 32.6008 21.7096 32.5785 21.6905C32.5594 21.6714 32.5402 21.6523 32.5211 21.63C32.5084 21.6045 32.4893 21.5822 32.4606 21.5727C32.2982 21.4038 32.1389 21.2318 31.9669 21.0694C31.8332 20.942 31.7663 20.8018 31.83 20.6203C31.8364 20.598 31.8459 20.5788 31.8555 20.5629C31.9255 20.4323 32.0466 20.3845 32.26 20.3877C32.3046 20.4068 32.3523 20.4291 32.3969 20.4514L32.4447 20.4897H32.4479Z" fill="#FCE8D4"/>
<path d="M31.689 19.7539C31.826 19.8973 31.8069 20.1139 31.6699 20.2476C31.5967 20.3209 31.5011 20.3623 31.4056 20.3623C31.3259 20.3623 31.2463 20.3337 31.1794 20.2699C30.7686 19.8718 30.3704 19.4641 29.9691 19.0595C29.9214 19.0085 29.9022 18.9417 29.915 18.8652C29.9182 18.7919 29.9405 18.7282 29.9755 18.6741C30.0105 18.6231 30.0647 18.5785 30.1316 18.5499C30.2717 18.4862 30.4214 18.4893 30.5297 18.5976C30.9215 18.9767 31.31 19.3621 31.689 19.7539Z" fill="#FCE8D4"/>
<path d="M28.7091 16.766C29.0658 17.1196 29.4193 17.4731 29.7729 17.8299C29.9417 18.0019 29.9449 18.2185 29.7952 18.3809C29.7092 18.4447 29.6232 18.4733 29.5372 18.4733C29.4512 18.4733 29.3588 18.4447 29.2696 18.4001C28.9129 18.0465 28.5498 17.6993 28.2058 17.3362C28.0561 17.1769 27.9956 16.9921 28.1039 16.8169C28.1167 16.7978 28.1294 16.7755 28.1485 16.7564C28.2982 16.5844 28.5243 16.5876 28.7091 16.766Z" fill="#FCE8D4"/>
<path d="M26.2758 15.3709C26.2089 15.3008 26.177 15.2116 26.1834 15.1479C26.1834 15.0778 26.1962 15.0173 26.2153 14.9663C26.2503 14.8835 26.314 14.8262 26.4 14.7911C26.537 14.7338 26.6739 14.7402 26.7854 14.8485C27.1644 15.2212 27.5434 15.597 27.9161 15.9761C28.0721 16.1322 28.0658 16.352 27.9224 16.4921C27.846 16.5686 27.7505 16.6068 27.6581 16.6068C27.5657 16.6068 27.4829 16.5718 27.4065 16.4985C27.0243 16.129 26.6516 15.7468 26.2758 15.3709Z" fill="#FCE8D4"/>
<path d="M17.8444 36.1234C17.7743 35.9705 17.8093 35.824 17.9304 35.7029L18.9241 34.7091C20.4848 33.1483 22.0454 31.5874 23.6093 30.0266C24.5489 29.0838 25.4916 28.1409 26.4344 27.198C26.6096 27.0228 26.8198 27.0133 26.9727 27.1598C27.1319 27.3095 27.1351 27.5293 26.9695 27.695C26.5714 28.0995 26.17 28.5008 25.7687 28.9022C24.5298 30.1413 23.2876 31.3804 22.0486 32.6227C20.867 33.8045 19.6853 34.983 18.5069 36.1648C18.4049 36.2667 18.2966 36.3464 18.1565 36.34C17.9877 36.3464 17.9017 36.2444 17.8444 36.1234Z" fill="#FCE8D4"/>
<path d="M23.7968 26.768C21.3444 29.2239 18.8919 31.6734 16.4394 34.1293C16.3279 34.2376 16.2133 34.3205 16.0476 34.2791C15.761 34.209 15.6591 33.8809 15.8661 33.6675C16.2419 33.282 16.6241 32.903 17.0032 32.5239C17.965 31.562 18.9301 30.6 19.892 29.638C21.3826 28.1473 22.8732 26.6565 24.3638 25.1626C24.6409 24.8886 24.9116 24.6083 25.1887 24.328C25.2174 24.2994 25.246 24.2707 25.2747 24.2388L25.3033 24.2102C25.3352 24.1815 25.3639 24.1528 25.3957 24.121C25.4021 24.1114 25.4116 24.1019 25.4212 24.0955L25.5136 24.0031C25.5136 24.0031 25.5295 23.984 25.539 23.9745C25.5582 23.9553 25.5804 23.9362 25.5996 23.9139L25.6282 23.8853C25.6282 23.8853 25.6473 23.863 25.6569 23.8534C25.6887 23.8247 25.7174 23.7961 25.7493 23.7674L25.7779 23.7387C25.8066 23.7069 25.8384 23.6782 25.8671 23.6495L25.8958 23.6209C25.9244 23.589 25.9563 23.5604 25.9849 23.5285C25.9945 23.519 26.0041 23.5126 26.0136 23.503C26.0232 23.4903 26.0295 23.4839 26.0423 23.4712C26.1123 23.4202 26.1697 23.3597 26.2206 23.2928L26.2493 23.2641C26.2493 23.2641 26.2684 23.2418 26.278 23.2323H26.2812C26.3003 23.2132 26.3194 23.194 26.3417 23.1749C26.3512 23.1654 26.3576 23.1558 26.3671 23.1463C26.399 23.1176 26.4277 23.0857 26.4595 23.0571C26.4691 23.0475 26.4786 23.038 26.485 23.0284C26.5137 23.0157 26.536 22.9966 26.5455 22.9679C26.5551 22.9551 26.5646 22.9456 26.5742 22.936H26.5774C27.1316 22.385 27.6889 21.8339 28.2431 21.2828C28.4056 21.1204 28.568 20.9547 28.7336 20.7923C28.912 20.6139 29.1286 20.5948 29.2846 20.7413C29.4471 20.8942 29.4439 21.0885 29.2783 21.2924C29.2687 21.3019 29.2655 21.3179 29.2592 21.3306H29.256C29.24 21.3465 29.2241 21.3625 29.205 21.3752C29.1031 21.458 29.0012 21.544 28.9343 21.6619L28.877 21.7192C28.3705 22.1429 27.931 22.6302 27.466 23.0921C26.2397 24.3153 25.0199 25.5448 23.7968 26.768Z" fill="#FCE8D4"/>
<path d="M21.6511 24.8185C20.0172 26.4494 18.3864 28.0803 16.7557 29.7112C15.9594 30.5076 15.1632 31.3071 14.3637 32.1034C14.1631 32.3041 13.8923 32.2786 13.7586 32.0588C13.6662 31.9027 13.6949 31.7371 13.8509 31.581C14.128 31.3007 14.4083 31.0236 14.6886 30.7433C16.1155 29.3162 17.5519 27.8956 18.9693 26.4558C19.5967 25.8187 20.2433 25.2008 20.8707 24.5605C21.1733 24.2515 21.4823 23.9489 21.788 23.6431L24.903 20.5279C24.9348 20.4928 24.9667 20.4546 24.9985 20.4196C25.4158 20.015 25.8298 19.6105 26.228 19.1836C26.3745 19.0244 26.5465 18.8874 26.6866 18.7122C26.8204 18.5434 27.1134 18.5625 27.2535 18.7122C27.4001 18.8651 27.3841 19.0881 27.209 19.2633C26.0114 20.461 24.8138 21.6555 23.6162 22.8532C23.5908 22.8786 23.5717 22.9041 23.5494 22.9296C23.5398 22.9392 23.5302 22.9487 23.5239 22.9583C23.492 22.9869 23.4602 23.0188 23.4315 23.0507C23.422 23.057 23.4124 23.0666 23.4028 23.0761C23.336 23.1462 23.2659 23.2163 23.1958 23.2864L23.1672 23.315C23.1353 23.3437 23.1066 23.3756 23.0748 23.4042C22.6002 23.8757 22.1225 24.3471 21.6511 24.8185Z" fill="#FCE8D4"/>
<path d="M16.3706 25.9908C15.1221 27.2394 13.8768 28.4881 12.6314 29.7368C12.5199 29.8482 12.4085 29.9597 12.297 30.068C12.1409 30.2177 11.9084 30.2273 11.7683 30.0871C11.6249 29.947 11.6186 29.7145 11.7746 29.5584C12.1823 29.1443 12.5932 28.7334 13.0041 28.3225C13.3894 27.9402 13.7717 27.5548 14.157 27.1725C15.0488 26.2807 15.9407 25.3888 16.8325 24.4969C17.1319 24.1942 17.4313 23.8885 17.7306 23.5858C17.7529 23.5763 17.7689 23.5604 17.7657 23.5317C17.8103 23.5221 17.8389 23.4935 17.8517 23.4489H17.8485C17.8867 23.4425 17.909 23.4234 17.909 23.3852H17.9154C17.9345 23.3852 17.9409 23.3756 17.9377 23.3533L17.9504 23.3597C18.3995 22.9137 18.855 22.4678 19.3041 22.0187C21.0622 20.2603 22.8235 18.4988 24.5816 16.7405C24.6581 16.6641 24.7313 16.5845 24.8428 16.5558C24.9925 16.5144 25.1677 16.5845 25.2505 16.7214C25.3333 16.8616 25.3142 17.04 25.2027 17.1514C24.811 17.5432 24.4224 17.935 24.0306 18.3268C22.6866 19.6742 21.3393 21.0216 19.9952 22.369C19.9825 22.3818 19.9697 22.3977 19.9602 22.4136V22.4232C19.9283 22.4264 19.9092 22.4455 19.906 22.4805C19.8805 22.4805 19.8646 22.4965 19.8551 22.5188C19.4283 22.9424 18.9983 23.3629 18.5747 23.7865C17.8358 24.5192 17.1 25.255 16.3675 25.9908H16.3706Z" fill="#FCE8D4"/>
</g>
<defs>
<clipPath id="clip0_1492_4485">
<rect width="32" height="32" fill="white" transform="translate(8 8)"/>
</clipPath>
</defs>
</svg>
