<svg width="1440" height="485" viewBox="0 0 1440 485" fill="none" xmlns="http://www.w3.org/2000/svg">
<mask id="mask0_2175_9944" style="mask-type:alpha" maskUnits="userSpaceOnUse" x="-73" y="0" width="1586" height="1618">
<g clip-path="url(#clip0_2175_9944)">
<path d="M34.2316 430.04C34.2316 439.8 26.3016 447.73 16.5416 447.73C6.78156 447.73 -1.14844 439.8 -1.14844 430.04C-1.14844 420.28 6.78156 412.42 16.5416 412.42C26.3016 412.42 34.2316 420.28 34.2316 430.04ZM5.26157 430.04C5.26157 436.26 10.3116 441.28 16.5316 441.28C22.7516 441.28 27.7716 436.32 27.7716 430.04C27.7716 423.76 22.6916 418.83 16.5316 418.83C10.3716 418.83 5.26157 423.88 5.26157 430.04Z" fill="#F28C28"/>
<path d="M336.2 243.16C336.2 252.92 328.34 260.78 318.67 260.78C309 260.78 300.98 252.92 300.98 243.16C300.98 233.4 308.91 225.5 318.67 225.5C328.43 225.5 336.2 233.43 336.2 243.16ZM307.39 243.16C307.39 249.48 312.29 254.37 318.67 254.37C325.05 254.37 329.79 249.35 329.79 243.16C329.79 236.97 324.77 231.92 318.67 231.92C312.57 231.92 307.39 236.94 307.39 243.16Z" fill="#F28C28"/>
<path d="M321.862 151.7C321.862 161.46 313.932 169.39 304.172 169.39C294.412 169.39 286.512 161.46 286.512 151.7C286.512 141.94 294.442 134.08 304.172 134.08C313.902 134.08 321.862 141.94 321.862 151.7ZM292.932 151.7C292.932 157.99 297.832 162.94 304.172 162.94C310.512 162.94 315.452 157.92 315.452 151.7C315.452 145.48 310.362 140.49 304.172 140.49C297.982 140.49 292.932 145.54 292.932 151.7Z" fill="#F28C28"/>
<path d="M321.862 319.25C321.862 328.98 313.932 336.87 304.172 336.87C294.412 336.87 286.512 328.97 286.512 319.25C286.512 309.53 294.442 301.63 304.172 301.63C313.902 301.63 321.862 309.49 321.862 319.25ZM292.932 319.25C292.932 325.53 297.832 330.43 304.172 330.43C310.512 330.43 315.452 325.41 315.452 319.25C315.452 313.09 310.362 308.04 304.172 308.04C297.982 308.04 292.932 312.97 292.932 319.25Z" fill="#F28C28"/>
<path d="M264.22 316.85C264.22 326.61 256.36 334.47 246.69 334.47C237.02 334.47 229 326.61 229 316.85C229 307.09 236.93 299.23 246.69 299.23C256.45 299.23 264.22 307.09 264.22 316.85ZM235.41 316.85C235.41 323.14 240.34 328.06 246.69 328.06C253.04 328.06 257.81 323.01 257.81 316.85C257.81 310.69 252.79 305.64 246.69 305.64C240.59 305.64 235.41 310.57 235.41 316.85Z" fill="#F28C28"/>
<path d="M206.73 462.63C206.73 472.36 198.87 480.22 189.17 480.22C179.47 480.22 171.48 472.36 171.48 462.63C171.48 452.9 179.41 444.94 189.17 444.94C198.93 444.94 206.73 452.87 206.73 462.63ZM177.9 462.63C177.9 468.79 182.95 473.81 189.18 473.81C195.41 473.81 200.33 468.79 200.33 462.63C200.33 456.47 195.28 451.36 189.18 451.36C183.08 451.36 177.9 456.32 177.9 462.63Z" fill="#F28C28"/>
<path d="M91.7083 217.01C91.7083 226.74 83.7783 234.6 74.0183 234.6C64.2583 234.6 56.4883 226.74 56.4883 217.01C56.4883 207.28 64.3483 199.32 74.0183 199.32C83.6883 199.32 91.7083 207.25 91.7083 217.01ZM62.8983 217.01C62.8983 223.17 67.8583 228.19 74.0183 228.19C80.1783 228.19 85.2983 223.17 85.2983 217.01C85.2983 210.85 80.3383 205.73 74.0183 205.73C67.6983 205.73 62.8983 210.75 62.8983 217.01Z" fill="#F28C28"/>
<path d="M19.7303 3.22H13.3203V417.94H19.7303V3.22Z" fill="#F28C28"/>
<path d="M77.2381 3.22H70.8281V202.51H77.2381V3.22Z" fill="#F28C28"/>
<path d="M134.761 3.22V339.17H77.2413V570.14H-40.9688V563.73H70.8313V332.76H128.341V3.22H134.761Z" fill="#F28C28"/>
<path d="M192.401 3.22V435.25H134.761V670.8H77.2413V775.5H13.3213V717.48H-40.9688V711.07H19.7313V769.09H70.8313V664.39H128.341V428.84H185.951V3.22H192.401Z" fill="#F28C28"/>
<path d="M304.169 239.97V246.38H243.469V3.22H249.879V239.97H304.169Z" fill="#F28C28"/>
<path d="M249.879 329.35H243.469V566.92H249.879V329.35Z" fill="#F28C28"/>
<path d="M192.4 475.71V731.98H134.76V840.75H128.34V725.54H185.95V475.71H192.4Z" fill="#F28C28"/>
<path d="M307.39 3.22H300.98V137.29H307.39V3.22Z" fill="#F28C28"/>
<path d="M364.898 471.13V597.02H307.388V715.12H249.878V848.02H192.268V964.94H185.828V841.57H243.468V708.7H300.978V590.58H358.488V477.54H300.978V333.4H307.388V471.13H364.898Z" fill="#F28C28"/>
<path d="M1397.97 268.59C1397.97 278.35 1390.08 286.28 1380.29 286.28C1370.5 286.28 1362.61 278.35 1362.61 268.59C1362.61 258.83 1370.57 250.9 1380.29 250.9C1390.01 250.9 1397.97 258.83 1397.97 268.59ZM1369.04 268.59C1369.04 274.81 1374.09 279.87 1380.28 279.87C1386.47 279.87 1391.59 274.82 1391.59 268.59C1391.59 262.36 1386.54 257.35 1380.28 257.35C1374.02 257.35 1369.04 262.37 1369.04 268.59Z" fill="#F28C28"/>
<path d="M1455.51 388.13C1455.51 397.89 1447.55 405.82 1437.83 405.82C1428.11 405.82 1420.14 397.89 1420.14 388.13C1420.14 378.37 1428.04 370.44 1437.83 370.44C1447.62 370.44 1455.51 378.37 1455.51 388.13ZM1426.52 388.13C1426.52 394.35 1431.57 399.4 1437.83 399.4C1444.09 399.4 1449.07 394.35 1449.07 388.13C1449.07 381.91 1444.02 376.85 1437.83 376.85C1431.64 376.85 1426.52 381.9 1426.52 388.13Z" fill="#F28C28"/>
<path d="M1455.51 164.52C1455.51 174.28 1447.55 182.21 1437.83 182.21C1428.11 182.21 1420.14 174.28 1420.14 164.52C1420.14 154.76 1428.04 146.83 1437.83 146.83C1447.62 146.83 1455.51 154.76 1455.51 164.52ZM1426.52 164.52C1426.52 170.74 1431.57 175.79 1437.83 175.79C1444.09 175.79 1449.07 170.74 1449.07 164.52C1449.07 158.3 1444.02 153.28 1437.83 153.28C1431.64 153.28 1426.52 158.3 1426.52 164.52Z" fill="#F28C28"/>
<path d="M1498.53 463.08V652.13H1492.09V469.49H1441.05V542.6H1377.13V283.05H1383.5V536.16H1434.61V463.08H1498.53Z" fill="#F28C28"/>
<path d="M1498.53 242.91V305.7H1441.05V373.66H1434.61V299.28H1492.09V249.35H1434.61V178.98H1441.05V242.91H1498.53Z" fill="#F28C28"/>
<path d="M1383.5 3.22V233.81H1326.02V412.86H1268.48V585.18H1326.02V732.42H1319.58V591.59H1262.1V406.45H1319.58V227.37H1377.13V3.22H1383.5Z" fill="#F28C28"/>
<path d="M1326.02 455.47H1319.58V546.11H1326.02V455.47Z" fill="#F28C28"/>
<path d="M945.881 268.59C945.881 278.35 937.921 286.28 928.201 286.28C918.481 286.28 910.641 278.35 910.641 268.59C910.641 258.83 918.471 250.9 928.201 250.9C937.931 250.9 945.881 258.83 945.881 268.59ZM917.081 268.59C917.081 274.81 922.071 279.87 928.201 279.87C934.331 279.87 939.441 274.82 939.441 268.59C939.441 262.36 934.391 257.35 928.201 257.35C922.011 257.35 917.081 262.37 917.081 268.59Z" fill="#F28C28"/>
<path d="M1003.37 388.13C1003.37 397.89 995.471 405.82 985.681 405.82C975.891 405.82 968.121 397.89 968.121 388.13C968.121 378.37 976.021 370.44 985.681 370.44C995.341 370.44 1003.37 378.37 1003.37 388.13ZM974.561 388.13C974.561 394.35 979.621 399.4 985.681 399.4C991.741 399.4 996.991 394.35 996.991 388.13C996.991 381.91 991.941 376.85 985.681 376.85C979.421 376.85 974.561 381.9 974.561 388.13Z" fill="#F28C28"/>
<path d="M1003.37 164.52C1003.37 174.28 995.471 182.21 985.681 182.21C975.891 182.21 968.121 174.28 968.121 164.52C968.121 154.76 976.021 146.83 985.681 146.83C995.341 146.83 1003.37 154.76 1003.37 164.52ZM974.561 164.52C974.561 170.74 979.621 175.79 985.681 175.79C991.741 175.79 996.991 170.74 996.991 164.52C996.991 158.3 991.941 153.28 985.681 153.28C979.421 153.28 974.561 158.3 974.561 164.52Z" fill="#F28C28"/>
<path d="M1118.39 314.63C1118.39 324.39 1110.49 332.32 1100.83 332.32C1091.17 332.32 1083.15 324.39 1083.15 314.63C1083.15 304.87 1091.11 296.97 1100.83 296.97C1110.55 296.97 1118.39 304.9 1118.39 314.63ZM1089.59 314.63C1089.59 320.88 1094.58 325.9 1100.83 325.9C1107.08 325.9 1111.95 320.88 1111.95 314.63C1111.95 308.38 1106.96 303.39 1100.83 303.39C1094.7 303.39 1089.59 308.41 1089.59 314.63Z" fill="#F28C28"/>
<path d="M1175.88 223.04C1175.88 232.8 1168.05 240.73 1158.32 240.73C1148.59 240.73 1140.63 232.8 1140.63 223.04C1140.63 213.28 1148.59 205.35 1158.32 205.35C1168.05 205.35 1175.88 213.28 1175.88 223.04ZM1147.07 223.04C1147.07 229.26 1152.13 234.28 1158.32 234.28C1164.51 234.28 1169.5 229.26 1169.5 223.04C1169.5 216.82 1164.45 211.77 1158.32 211.77C1152.19 211.77 1147.07 216.82 1147.07 223.04Z" fill="#F28C28"/>
<path d="M1060.84 17.69C1060.84 27.45 1053.01 35.38 1043.34 35.38C1033.67 35.38 1025.66 27.45 1025.66 17.69C1025.66 7.93 1033.56 0 1043.34 0C1053.12 0 1060.84 7.93 1060.84 17.69ZM1032.04 17.69C1032.04 23.91 1037.09 28.93 1043.35 28.93C1049.61 28.93 1054.47 23.91 1054.47 17.69C1054.47 11.47 1049.42 6.41 1043.35 6.41C1037.28 6.41 1032.04 11.4 1032.04 17.69Z" fill="#F28C28"/>
<path d="M1233.55 81.36C1233.55 91.12 1225.59 99.05 1215.86 99.05C1206.13 99.05 1198.18 91.12 1198.18 81.36C1198.18 71.6 1206.07 63.67 1215.86 63.67C1225.65 63.67 1233.55 71.6 1233.55 81.36ZM1204.55 81.36C1204.55 87.58 1209.6 92.6 1215.86 92.6C1222.12 92.6 1227.1 87.58 1227.1 81.36C1227.1 75.14 1222.05 70.09 1215.86 70.09C1209.67 70.09 1204.55 75.14 1204.55 81.36Z" fill="#F28C28"/>
<path d="M1046.51 463.08V652.13H1040.13V469.49H988.899V542.6H924.969V283.05H931.419V536.16H982.459V463.08H1046.51Z" fill="#F28C28"/>
<path d="M1046.51 242.91V305.7H988.901V373.66H982.461V299.28H1040.13V249.35H982.591V178.98H989.031V242.91H1046.51Z" fill="#F28C28"/>
<path d="M1219.08 95.82V271.81H1161.54V384.91H1219.08V542.79H1212.64V391.35H1155.15V265.4H1212.64V95.82H1219.08Z" fill="#F28C28"/>
<path d="M1161.54 421.48V522.64H1155.15V427.89H1097.61V328.06H1104.05V421.48H1161.54Z" fill="#F28C28"/>
<path d="M1161.54 112.75V208.58H1155.15V119.16H1104.05V165.47H1040.13V35.91H1046.51V159.05H1097.61V112.75H1161.54Z" fill="#F28C28"/>
<path d="M827.639 32.66C837.429 32.66 845.259 40.52 845.259 50.22C845.259 59.92 837.429 67.88 827.639 67.88C817.849 67.88 809.949 59.95 809.949 50.22C809.949 40.49 817.909 32.66 827.639 32.66ZM827.639 61.46C833.949 61.46 838.879 56.5 838.879 50.22C838.879 43.94 833.829 39.07 827.639 39.07C821.449 39.07 816.389 44.09 816.389 50.22C816.389 56.35 821.449 61.46 827.639 61.46Z" fill="#F28C28"/>
<path d="M827.639 176.49C837.429 176.49 845.259 184.42 845.259 194.18C845.259 203.94 837.429 211.84 827.639 211.84C817.849 211.84 809.949 203.91 809.949 194.18C809.949 184.45 817.909 176.49 827.639 176.49ZM827.639 205.42C833.949 205.42 838.879 200.46 838.879 194.18C838.879 187.9 833.829 182.91 827.639 182.91C821.449 182.91 816.389 187.93 816.389 194.18C816.389 200.43 821.449 205.42 827.639 205.42Z" fill="#F28C28"/>
<path d="M830.858 64.68H824.418V179.68H830.858V64.68Z" fill="#F28C28"/>
<path d="M1290.33 32.66C1300.06 32.66 1307.95 40.52 1307.95 50.22C1307.95 59.92 1300.06 67.88 1290.33 67.88C1280.6 67.88 1272.64 59.95 1272.64 50.22C1272.64 40.49 1280.6 32.66 1290.33 32.66ZM1290.33 61.46C1296.64 61.46 1301.51 56.5 1301.51 50.22C1301.51 43.94 1296.52 39.07 1290.33 39.07C1284.14 39.07 1279.09 44.09 1279.09 50.22C1279.09 56.35 1284.08 61.46 1290.33 61.46Z" fill="#F28C28"/>
<path d="M1290.33 176.49C1300.06 176.49 1307.95 184.42 1307.95 194.18C1307.95 203.94 1300.06 211.84 1290.33 211.84C1280.6 211.84 1272.64 203.91 1272.64 194.18C1272.64 184.45 1280.6 176.49 1290.33 176.49ZM1290.33 205.42C1296.64 205.42 1301.51 200.46 1301.51 194.18C1301.51 187.9 1296.52 182.91 1290.33 182.91C1284.14 182.91 1279.09 187.93 1279.09 194.18C1279.09 200.43 1284.08 205.42 1290.33 205.42Z" fill="#F28C28"/>
<path d="M1293.55 64.68H1287.11V179.68H1293.55V64.68Z" fill="#F28C28"/>
<path d="M931.419 3.22V233.81H873.869V412.86H816.389V585.18H873.869V732.42H867.489V591.59H809.949V406.45H867.489V227.37H924.969V3.22H931.419Z" fill="#F28C28"/>
<path d="M873.868 455.47H867.488V546.11H873.868V455.47Z" fill="#F28C28"/>
<path d="M767.567 3.22H761.117V274.3H767.567V3.22Z" fill="#F28C28"/>
<path d="M782.028 290.35C782.028 300.11 774.128 308.04 764.338 308.04C754.548 308.04 746.688 300.11 746.688 290.35C746.688 280.59 754.618 272.76 764.338 272.76C774.058 272.76 782.028 280.62 782.028 290.35ZM753.097 290.35C753.097 296.6 758.148 301.63 764.338 301.63C770.528 301.63 775.588 296.61 775.588 290.35C775.588 284.09 770.598 279.17 764.338 279.17C758.078 279.17 753.097 284.07 753.097 290.35Z" fill="#F28C28"/>
<path d="M724.508 430.1C724.508 439.86 716.588 447.72 706.858 447.72C697.128 447.72 689.168 439.86 689.168 430.1C689.168 420.34 697.098 412.41 706.858 412.41C716.618 412.41 724.508 420.34 724.508 430.1ZM695.588 430.1C695.588 436.39 700.478 441.28 706.858 441.28C713.238 441.28 718.098 436.26 718.098 430.1C718.098 423.94 713.018 418.83 706.858 418.83C700.698 418.83 695.588 423.88 695.588 430.1Z" fill="#F28C28"/>
<path d="M422.418 243.16C422.418 252.92 414.488 260.78 404.728 260.78C394.968 260.78 387.168 252.92 387.168 243.16C387.168 233.4 395.028 225.5 404.728 225.5C414.428 225.5 422.418 233.43 422.418 243.16ZM393.578 243.16C393.578 249.35 398.568 254.37 404.728 254.37C410.888 254.37 415.968 249.47 415.968 243.16C415.968 236.85 410.888 231.92 404.728 231.92C398.568 231.92 393.578 236.94 393.578 243.16Z" fill="#F28C28"/>
<path d="M436.88 151.7C436.88 161.46 428.95 169.39 419.19 169.39C409.43 169.39 401.5 161.46 401.5 151.7C401.5 141.94 409.43 134.08 419.19 134.08C428.95 134.08 436.88 141.94 436.88 151.7ZM407.92 151.7C407.92 157.92 412.97 162.94 419.2 162.94C425.43 162.94 430.48 157.98 430.48 151.7C430.48 145.42 425.36 140.49 419.2 140.49C413.04 140.49 407.92 145.54 407.92 151.7Z" fill="#F28C28"/>
<path d="M436.88 319.25C436.88 328.98 428.95 336.91 419.19 336.91C409.43 336.88 401.5 328.95 401.5 319.25C401.5 309.55 409.43 301.63 419.19 301.63C428.95 301.63 436.88 309.49 436.88 319.25ZM407.92 319.25C407.92 325.41 412.97 330.43 419.2 330.49C425.36 330.49 430.48 325.47 430.48 319.25C430.48 313.03 425.49 308.04 419.2 308.04C412.91 308.04 407.92 313.09 407.92 319.25Z" fill="#F28C28"/>
<path d="M494.368 316.85C494.368 326.61 486.438 334.54 476.708 334.54C466.978 334.54 459.148 326.61 459.148 316.85C459.148 307.09 467.008 299.23 476.708 299.23C486.408 299.23 494.368 307.09 494.368 316.85ZM465.558 316.85C465.558 323.07 470.518 328.12 476.708 328.12C482.898 328.12 487.948 323.07 487.948 316.85C487.948 310.63 482.988 305.64 476.708 305.64C470.428 305.64 465.558 310.69 465.558 316.85Z" fill="#F28C28"/>
<path d="M551.88 462.63C551.88 472.36 543.95 480.22 534.19 480.22C524.43 480.22 516.66 472.36 516.66 462.63C516.66 452.9 524.52 444.94 534.19 444.94C543.86 444.94 551.88 452.87 551.88 462.63ZM523.08 462.63C523.08 468.79 528.04 473.81 534.2 473.81C540.36 473.81 545.48 468.91 545.48 462.63C545.48 456.35 540.39 451.36 534.2 451.36C528.01 451.36 523.08 456.38 523.08 462.63Z" fill="#F28C28"/>
<path d="M666.908 217.01C666.908 226.74 659.038 234.6 649.348 234.6C639.658 234.6 631.668 226.74 631.668 217.01C631.668 207.28 639.588 199.32 649.348 199.32C659.108 199.32 666.908 207.25 666.908 217.01ZM638.068 217.01C638.068 223.3 642.998 228.19 649.338 228.19C655.678 228.19 660.488 223.17 660.488 217.01C660.488 210.85 655.438 205.73 649.338 205.73C643.238 205.73 638.068 210.75 638.068 217.01Z" fill="#F28C28"/>
<path d="M710.047 3.22H703.637V417.94H710.047V3.22Z" fill="#F28C28"/>
<path d="M652.557 3.22H646.117V202.51H652.557V3.22Z" fill="#F28C28"/>
<path d="M764.337 563.73V570.14H646.117V339.17H588.637V3.22H595.057V332.76H652.567V563.73H764.337Z" fill="#F28C28"/>
<path d="M764.34 711.07V717.48H710.05V775.5H646.12V670.8H588.64V435.25H531V3.22H537.41V428.84H595.06V664.39H652.57V769.09H703.64V711.07H764.34Z" fill="#F28C28"/>
<path d="M479.899 3.22V246.38H419.199V239.97H473.489V3.22H479.899Z" fill="#F28C28"/>
<path d="M479.898 329.35H473.488V566.92H479.898V329.35Z" fill="#F28C28"/>
<path d="M595.06 725.54V840.75H588.64V731.98H531V475.71H537.41V725.54H595.06Z" fill="#F28C28"/>
<path d="M422.417 3.22H415.977V137.29H422.417V3.22Z" fill="#F28C28"/>
<path d="M537.538 841.57V964.94H531.128V848.02H473.488V715.12H415.978V597.02H358.488V471.13H415.978V333.4H422.418V477.54H364.898V590.58H422.418V708.7H479.898V841.57H537.538Z" fill="#F28C28"/>
<path d="M888.149 437.84C888.149 447.6 880.379 455.46 870.649 455.46C860.919 455.46 852.969 447.6 852.969 437.84C852.969 428.08 860.859 420.15 870.649 420.15C880.439 420.15 888.149 428.08 888.149 437.84ZM859.339 437.84C859.339 444.13 864.389 449.02 870.649 449.02C876.909 449.02 881.769 444 881.769 437.84C881.769 431.68 876.839 426.57 870.649 426.57C864.459 426.57 859.339 431.62 859.339 437.84Z" fill="#F28C28"/>
<path d="M1340.42 437.84C1340.42 447.6 1332.59 455.46 1322.92 455.46C1313.25 455.46 1305.17 447.6 1305.17 437.84C1305.17 428.08 1313.13 420.15 1322.92 420.15C1332.71 420.15 1340.42 428.08 1340.42 437.84ZM1311.62 437.84C1311.62 444.13 1316.61 449.02 1322.93 449.02C1329.25 449.02 1333.98 444 1333.98 437.84C1333.98 431.68 1329.12 426.57 1322.93 426.57C1316.74 426.57 1311.62 431.62 1311.62 437.84Z" fill="#F28C28"/>
</g>
</mask>
<g mask="url(#mask0_2175_9944)">
<rect y="3" width="1422" height="512" fill="url(#paint0_linear_2175_9944)"/>
</g>
<defs>
<linearGradient id="paint0_linear_2175_9944" x1="711" y1="3" x2="711" y2="515" gradientUnits="userSpaceOnUse">
<stop stop-color="#F9F9F9"/>
<stop offset="0.5" stop-color="#FBF0E6"/>
<stop offset="1" stop-color="#F9F9F9"/>
</linearGradient>
<clipPath id="clip0_2175_9944">
<rect width="1586" height="1617.07" fill="white" transform="translate(-73)"/>
</clipPath>
</defs>
</svg>
